<svg width="23" height="23" viewBox="0 0 23 23" fill="none" xmlns="http://www.w3.org/2000/svg">
<g clip-path="url(#clip0_187_192)">
<path d="M18.0012 0.590332H4.99722C2.5617 0.590332 0.589844 2.56219 0.589844 4.99771V18.0044C0.589844 20.4372 2.5617 22.409 4.99722 22.409H18.0039C20.4367 22.409 22.4113 20.4372 22.4113 18.0017V4.99771C22.4085 2.56219 20.4367 0.590332 18.0012 0.590332Z" fill="url(#paint0_linear_187_192)"/>
<path d="M11.4073 5.60327L11.8491 4.83961C12.1219 4.36231 12.73 4.20142 13.2073 4.47414C13.6846 4.74687 13.8455 5.35506 13.5728 5.83236L9.31542 13.2016H12.3946C13.3928 13.2016 13.9519 14.3744 13.5183 15.1871H4.49079C3.93989 15.1871 3.49805 14.7453 3.49805 14.1944C3.49805 13.6435 3.93989 13.2016 4.49079 13.2016H7.02178L10.2619 7.58604L9.25004 5.82963C8.97731 5.35233 9.1382 4.7496 9.61551 4.47142C10.0928 4.19869 10.6955 4.35958 10.9737 4.83688L11.4073 5.60327Z" fill="white"/>
<path d="M7.57837 16.2097L6.62381 17.8652C6.35108 18.3425 5.74289 18.5034 5.26559 18.2307C4.78829 17.958 4.6274 17.3498 4.90013 16.8725L5.60924 15.6452C6.41105 15.397 7.06288 15.5879 7.57837 16.2097Z" fill="white"/>
<path d="M15.7996 13.2069H18.3824C18.9333 13.2069 19.3752 13.6488 19.3752 14.1997C19.3752 14.7506 18.9333 15.1924 18.3824 15.1924H16.9478L17.916 16.8724C18.1888 17.3497 18.0279 17.9525 17.5506 18.2307C17.0733 18.5034 16.4705 18.3425 16.1923 17.8652C14.5614 15.0369 13.3368 12.9205 12.5241 11.5105C11.6922 10.0759 12.2868 8.63587 12.8732 8.14771C13.5251 9.26593 14.4987 10.9541 15.7996 13.2069Z" fill="white"/>
</g>
<defs>
<linearGradient id="paint0_linear_187_192" x1="11.5006" y1="0.590332" x2="11.5006" y2="22.409" gradientUnits="userSpaceOnUse">
<stop stop-color="#00BFFC"/>
<stop offset="1" stop-color="#0073F6"/>
</linearGradient>
<clipPath id="clip0_187_192">
<rect width="21.8214" height="21.8214" fill="white" transform="translate(0.589844 0.589355)"/>
</clipPath>
</defs>
</svg>
