<svg width="48" height="48" viewBox="0 0 48 48" fill="none" xmlns="http://www.w3.org/2000/svg">
<path d="M21.0812 1.48736C22.7631 0.0540525 25.2369 0.0540527 26.9188 1.48736L30.5449 4.57756C31.2657 5.19177 32.1618 5.56296 33.1058 5.63829L37.855 6.01728C40.0577 6.19306 41.8069 7.94226 41.9827 10.145L42.3617 14.8942C42.437 15.8382 42.8082 16.7343 43.4224 17.4551L46.5126 21.0812C47.9459 22.7631 47.9459 25.2369 46.5126 26.9188L43.4224 30.5449C42.8082 31.2657 42.437 32.1618 42.3617 33.1058L41.9827 37.855C41.8069 40.0577 40.0577 41.8069 37.855 41.9827L33.1058 42.3617C32.1618 42.437 31.2657 42.8082 30.5449 43.4224L26.9188 46.5126C25.2369 47.9459 22.7631 47.9459 21.0812 46.5126L17.4551 43.4224C16.7343 42.8082 15.8382 42.437 14.8942 42.3617L10.145 41.9827C7.94226 41.8069 6.19306 40.0577 6.01728 37.855L5.63829 33.1058C5.56296 32.1618 5.19177 31.2657 4.57756 30.5449L1.48736 26.9188C0.0540523 25.2369 0.0540529 22.7631 1.48736 21.0812L4.57756 17.4551C5.19177 16.7343 5.56296 15.8382 5.63829 14.8942L6.01728 10.145C6.19306 7.94226 7.94226 6.19306 10.1451 6.01728L14.8942 5.63829C15.8382 5.56296 16.7343 5.19177 17.4551 4.57756L21.0812 1.48736Z" fill="#6F00EB"/>
</svg>
