<svg width="169" height="41" viewBox="0 0 169 41" fill="none" xmlns="http://www.w3.org/2000/svg">
<g clip-path="url(#clip0_41_322)">
<path d="M49.7773 28.9525H61.7293V25.3525H54.0253V11.7925H49.7773V28.9525Z" fill="white"/>
<path d="M68.8098 26.5524C67.1058 26.5524 66.2178 25.0644 66.2178 22.8324C66.2178 20.6004 67.1058 19.0884 68.8098 19.0884C70.5138 19.0884 71.4258 20.6004 71.4258 22.8324C71.4258 25.0644 70.5138 26.5524 68.8098 26.5524ZM68.8338 29.3364C72.7938 29.3364 75.3858 26.5284 75.3858 22.8324C75.3858 19.1364 72.7938 16.3284 68.8338 16.3284C64.8978 16.3284 62.2578 19.1364 62.2578 22.8324C62.2578 26.5284 64.8978 29.3364 68.8338 29.3364Z" fill="white"/>
<path d="M82.2406 33.2004C84.0646 33.2004 85.6726 32.7924 86.7526 31.8324C87.7366 30.9444 88.3846 29.6004 88.3846 27.7524V16.6644H84.6406V17.9844H84.5926C83.8726 16.9524 82.7686 16.3044 81.1366 16.3044C78.0886 16.3044 75.9766 18.8484 75.9766 22.4484C75.9766 26.2164 78.5446 28.2804 81.3046 28.2804C82.7926 28.2804 83.7286 27.6804 84.4486 26.8644H84.5446V28.0884C84.5446 29.5764 83.8486 30.4404 82.1926 30.4404C80.8966 30.4404 80.2486 29.8884 80.0326 29.2404H76.2406C76.6246 31.8084 78.8566 33.2004 82.2406 33.2004ZM82.2166 25.3764C80.7526 25.3764 79.7926 24.1764 79.7926 22.3284C79.7926 20.4564 80.7526 19.2564 82.2166 19.2564C83.8486 19.2564 84.7126 20.6484 84.7126 22.3044C84.7126 24.0324 83.9206 25.3764 82.2166 25.3764Z" fill="white"/>
<path d="M96.0833 26.5524C94.3793 26.5524 93.4912 25.0644 93.4912 22.8324C93.4912 20.6004 94.3793 19.0884 96.0833 19.0884C97.7873 19.0884 98.6992 20.6004 98.6992 22.8324C98.6992 25.0644 97.7873 26.5524 96.0833 26.5524ZM96.1072 29.3364C100.067 29.3364 102.659 26.5284 102.659 22.8324C102.659 19.1364 100.067 16.3284 96.1072 16.3284C92.1712 16.3284 89.5312 19.1364 89.5312 22.8324C89.5312 26.5284 92.1712 29.3364 96.1072 29.3364Z" fill="white"/>
<path d="M103.803 28.9525H107.715V16.6645H103.803V28.9525ZM103.803 14.9605H107.715V11.7925H103.803V14.9605Z" fill="white"/>
<path d="M109.41 33.0084H113.322V27.6804H113.37C114.138 28.7124 115.266 29.3364 116.85 29.3364C120.066 29.3364 122.202 26.7924 122.202 22.8084C122.202 19.1124 120.21 16.3044 116.946 16.3044C115.266 16.3044 114.066 17.0484 113.226 18.1524H113.154V16.6644H109.41V33.0084ZM115.842 26.3124C114.162 26.3124 113.202 24.9444 113.202 22.9524C113.202 20.9604 114.066 19.4484 115.77 19.4484C117.45 19.4484 118.242 20.8404 118.242 22.9524C118.242 25.0404 117.33 26.3124 115.842 26.3124Z" fill="white"/>
<path d="M128.572 29.3364C131.788 29.3364 134.164 27.9444 134.164 25.2564C134.164 22.1124 131.62 21.5604 129.46 21.2004C127.9 20.9124 126.508 20.7924 126.508 19.9284C126.508 19.1604 127.252 18.8004 128.212 18.8004C129.292 18.8004 130.036 19.1364 130.18 20.2404H133.78C133.588 17.8164 131.716 16.3044 128.236 16.3044C125.332 16.3044 122.932 17.6484 122.932 20.2404C122.932 23.1204 125.212 23.6964 127.348 24.0564C128.98 24.3444 130.468 24.4644 130.468 25.5684C130.468 26.3604 129.724 26.7924 128.548 26.7924C127.252 26.7924 126.436 26.1924 126.292 24.9684H122.596C122.716 27.6804 124.972 29.3364 128.572 29.3364Z" fill="white"/>
<path d="M139.478 29.3123C141.182 29.3123 142.262 28.6403 143.15 27.4403H143.222V28.9523H146.966V16.6643H143.054V23.5283C143.054 24.9923 142.238 26.0003 140.894 26.0003C139.646 26.0003 139.046 25.2563 139.046 23.9123V16.6643H135.158V24.7283C135.158 27.4643 136.646 29.3123 139.478 29.3123Z" fill="white"/>
<path d="M148.668 28.9524H152.58V22.0644C152.58 20.6004 153.3 19.5684 154.524 19.5684C155.7 19.5684 156.252 20.3364 156.252 21.6564V28.9524H160.164V22.0644C160.164 20.6004 160.86 19.5684 162.108 19.5684C163.284 19.5684 163.836 20.3364 163.836 21.6564V28.9524H167.748V20.9604C167.748 18.2004 166.356 16.3044 163.572 16.3044C161.988 16.3044 160.668 16.9764 159.708 18.4644H159.66C159.036 17.1444 157.812 16.3044 156.204 16.3044C154.428 16.3044 153.252 17.1444 152.484 18.4164H152.412V16.6644H148.668V28.9524Z" fill="white"/>
<path d="M25.9109 1.97695L21.9779 0.923096L18.6635 13.2927L15.6712 2.12533L11.7381 3.17919L14.9711 15.2447L6.91844 7.19207L4.03925 10.0713L12.872 18.9041L1.87222 15.9567L0.818359 19.8897L12.837 23.1101C12.6994 22.5166 12.6266 21.8982 12.6266 21.2628C12.6266 16.7652 16.2726 13.1192 20.7702 13.1192C25.2678 13.1192 28.9138 16.7652 28.9138 21.2628C28.9138 21.8941 28.8419 22.5087 28.706 23.0987L39.6287 26.0254L40.6825 22.0924L28.6161 18.8592L39.6166 15.9116L38.5627 11.9786L26.4968 15.2116L34.5494 7.15901L31.6702 4.27982L22.96 12.9901L25.9109 1.97695Z" fill="white"/>
<path d="M28.6939 23.1443C28.3567 24.5699 27.6448 25.8506 26.668 26.8767L34.581 34.7898L37.4602 31.9106L28.6939 23.1443Z" fill="white"/>
<path d="M26.5881 26.9597C25.5995 27.9694 24.3502 28.7229 22.9492 29.1112L25.8286 39.8572L29.7616 38.8033L26.5881 26.9597Z" fill="white"/>
<path d="M22.8023 29.1503C22.1523 29.3174 21.471 29.4062 20.7689 29.4062C20.0167 29.4062 19.2883 29.3042 18.5968 29.1133L15.7148 39.8691L19.6478 40.9229L22.8023 29.1503Z" fill="white"/>
<path d="M18.4588 29.0737C17.0792 28.6661 15.8521 27.903 14.8837 26.8904L6.95117 34.8229L9.83036 37.7021L18.4588 29.0737Z" fill="white"/>
<path d="M14.8163 26.8202C13.8645 25.8012 13.1712 24.5376 12.8412 23.134L1.88281 26.0703L2.93666 30.0033L14.8163 26.8202Z" fill="white"/>
</g>
<defs>
<clipPath id="clip0_41_322">
<rect width="168" height="41" fill="white" transform="translate(0.5)"/>
</clipPath>
</defs>
</svg>
