<svg width="164" height="42" viewBox="0 0 164 42" fill="none" xmlns="http://www.w3.org/2000/svg">
<path d="M30.7102 17.719C33.8482 17.719 34.5542 19.082 34.5542 20.782C34.5542 22.584 33.7002 23.875 30.7232 23.875C27.7652 23.875 26.9102 22.659 26.9102 20.782C26.9102 18.935 27.8422 17.719 30.7102 17.719Z" fill="white"/>
<path d="M63.5031 17.719C66.6411 17.719 67.3471 19.082 67.3471 20.782C67.3471 22.584 66.4921 23.875 63.5161 23.875C60.5591 23.875 59.7031 22.659 59.7031 20.782C59.7031 18.935 60.6351 17.719 63.5031 17.719Z" fill="white"/>
<path fill-rule="evenodd" clip-rule="evenodd" d="M2.92773 38.5001V3.04712H161.506V38.5001H2.92773ZM78.5058 36.5001H159.506V5.04712H78.5058V36.5001ZM30.726 26.8931C36.297 26.8931 38.639 24.4901 38.639 20.7371C38.639 16.9231 36.001 14.6561 30.726 14.6561C25.532 14.6561 22.798 17.1181 22.798 20.7371C22.798 24.8211 25.666 26.8931 30.726 26.8931ZM11.357 14.9261V26.7131H22.601V23.5741H15.425V14.9261H11.357ZM51.223 26.7131L51.118 25.5711C49.7571 26.5423 48.1007 27.0097 46.433 26.8931C43.926 26.8931 41.838 26.1421 40.667 24.6261C39.8946 23.5193 39.5046 22.1907 39.556 20.8421C39.5121 19.5218 39.9156 18.2254 40.701 17.1631C41.886 15.6921 44.034 14.7161 47.232 14.7161C50.911 14.7161 53.073 15.8421 54.003 17.7341C54.2026 18.1797 54.3199 18.6577 54.349 19.1451H50.457C50.3589 18.8489 50.1764 18.5879 49.932 18.3941C49.1567 17.8801 48.2309 17.6424 47.304 17.7191C46.7603 17.6532 46.2087 17.7034 45.6859 17.8665C45.1631 18.0296 44.6808 18.3018 44.271 18.6651C43.8056 19.3021 43.5871 20.0863 43.656 20.8721C43.602 21.6218 43.8029 22.3678 44.226 22.9891C44.6395 23.3744 45.1311 23.6662 45.6673 23.845C46.2036 24.0237 46.7719 24.0852 47.334 24.0251C48.4503 24.1159 49.5586 23.7716 50.427 23.0641C50.6135 22.8309 50.7421 22.5567 50.802 22.2641H46.614V19.7311H54.451V26.7131H51.223ZM63.52 26.8931C69.09 26.8931 71.433 24.4901 71.433 20.7371C71.433 16.9231 68.7909 14.6561 63.52 14.6561C58.326 14.6561 55.592 17.1181 55.592 20.7371C55.592 24.8211 58.46 26.8931 63.52 26.8931Z" fill="white"/>
<path d="M85.3574 26.6681V14.8811H88.2574V26.6681H85.3574Z" fill="white"/>
<path d="M103.15 21.7431C102.415 22.7041 101.15 23.1431 99.367 23.1541C98.991 23.1541 94.006 23.1391 94.006 23.1391V26.6681H91.168V14.8811H99.368C100.025 14.8116 100.69 14.8813 101.318 15.0856C101.947 15.29 102.525 15.6244 103.016 16.0671C103.664 16.9113 103.979 17.9639 103.902 19.0251C103.968 19.9903 103.703 20.9492 103.15 21.7431ZM100.823 17.9001C100.523 17.4501 99.876 17.2001 98.781 17.2001H93.991V20.7881H98.75C99.921 20.7881 100.538 20.5481 100.823 20.0821C100.992 19.7538 101.065 19.3841 101.033 19.0161C101.058 18.6323 100.986 18.2484 100.823 17.9001Z" fill="white"/>
<path d="M112.263 26.8479C106.917 26.8479 105.281 24.8479 105.281 22.8689H108.314C108.314 23.8449 109.65 24.5809 112.398 24.5809C115.13 24.5809 115.851 24.0999 115.851 23.3189C115.851 22.4479 115.311 22.1779 112.773 21.8929C112.273 21.8479 110.912 21.6829 110.401 21.6079C106.801 21.2019 105.415 20.1359 105.415 18.2289C105.415 16.2169 107.443 14.7009 111.842 14.7009C116.617 14.7009 118.449 16.5779 118.449 18.5299H115.449C115.449 17.5389 114.323 16.9679 111.665 16.9679C108.932 16.9679 108.347 17.3429 108.347 18.0789C108.347 18.8449 108.947 19.0849 111.847 19.4299C112.508 19.5209 113.979 19.6859 114.384 19.7299C117.448 20.0449 118.829 21.1559 118.829 23.1229C118.824 25.4659 116.722 26.8479 112.263 26.8479Z" fill="white"/>
<path d="M127.369 26.8331C123.451 26.8331 120.898 25.2861 120.898 22.0331V14.8811H123.765V22.0731C123.765 23.5601 124.982 24.5501 127.489 24.5501C129.756 24.5501 131.108 23.6201 131.108 22.0731V14.8811H133.946V22.3001C133.946 25.2571 131.573 26.8331 127.369 26.8331Z" fill="white"/>
<path d="M149.487 26.6681V18.8001L145.808 26.6681H143.016L139.442 18.8001V26.6681H136.742V14.8811H140.4L144.454 23.8601L148.598 14.8811H152.198V26.6681H149.487Z" fill="white"/>
</svg>
