<svg width="133" height="35" viewBox="0 0 133 35" fill="none" xmlns="http://www.w3.org/2000/svg">
<path d="M45.3293 25.2047C44.7345 25.237 44.1462 25.0679 43.6593 24.7247C43.4559 24.5739 43.2922 24.3758 43.1824 24.1476C43.0726 23.9193 43.0201 23.6678 43.0293 23.4147V14.1447C43.0245 14.1055 43.0286 14.0656 43.0415 14.0282C43.0543 13.9908 43.0755 13.9569 43.1035 13.9289C43.1315 13.9009 43.1654 13.8797 43.2028 13.8669C43.2402 13.854 43.2801 13.8499 43.3193 13.8547H44.9993C45.1893 13.8547 45.2793 13.9547 45.2793 14.1447V22.6947C45.2793 23.0747 45.4493 23.2647 45.7993 23.2647C45.9477 23.2708 46.0961 23.254 46.2393 23.2147C46.4393 23.2147 46.5493 23.2747 46.5593 23.4547L46.7093 24.7047C46.7165 24.7412 46.7158 24.7787 46.7073 24.8149C46.6988 24.851 46.6826 24.885 46.6598 24.9143C46.6371 24.9437 46.6083 24.9679 46.5755 24.9852C46.5426 25.0025 46.5064 25.0126 46.4693 25.0147C46.1013 25.1363 45.7168 25.2004 45.3293 25.2047Z" fill="white"/>
<path d="M54.7793 24.1347C53.9352 24.8322 52.8743 25.2137 51.7793 25.2137C50.6843 25.2137 49.6235 24.8322 48.7793 24.1347C48.0374 23.3857 47.6211 22.374 47.6211 21.3197C47.6211 20.2654 48.0374 19.2537 48.7793 18.5047C49.6251 17.8108 50.6853 17.4316 51.7793 17.4316C52.8733 17.4316 53.9335 17.8108 54.7793 18.5047C55.5042 19.2606 55.9089 20.2674 55.9089 21.3147C55.9089 22.362 55.5042 23.3688 54.7793 24.1247V24.1347ZM50.3593 22.8147C50.7511 23.1696 51.2607 23.3661 51.7893 23.3661C52.3179 23.3661 52.8276 23.1696 53.2193 22.8147C53.5739 22.4071 53.7691 21.885 53.7691 21.3447C53.7691 20.8045 53.5739 20.2824 53.2193 19.8747C52.8276 19.5199 52.3179 19.3233 51.7893 19.3233C51.2607 19.3233 50.7511 19.5199 50.3593 19.8747C50.0048 20.2824 49.8095 20.8045 49.8095 21.3447C49.8095 21.885 50.0048 22.4071 50.3593 22.8147Z" fill="white"/>
<path d="M65.1609 17.6846C65.3509 17.6846 65.4409 17.7846 65.4409 17.9746V25.1446C65.4584 25.6286 65.3678 26.1103 65.1758 26.5548C64.9838 26.9994 64.6952 27.3956 64.3309 27.7146C63.5223 28.4041 62.4825 28.7614 61.4209 28.7146C60.4621 28.7483 59.516 28.4865 58.7109 27.9646C58.3671 27.7389 58.0734 27.4448 57.8481 27.1008C57.6227 26.7567 57.4705 26.37 57.4009 25.9646C57.4009 25.7646 57.4009 25.6746 57.6709 25.6746H59.3509C59.4222 25.677 59.4914 25.7001 59.5499 25.7409C59.6085 25.7817 59.654 25.8385 59.6809 25.9046C59.7899 26.2083 60.0071 26.4612 60.2909 26.6146C60.6368 26.7931 61.0218 26.8825 61.4109 26.8746C61.6457 26.8875 61.8807 26.8534 62.1022 26.7744C62.3237 26.6955 62.5272 26.5731 62.7009 26.4146C62.8596 26.2488 62.983 26.0525 63.0638 25.8377C63.1446 25.6229 63.181 25.3939 63.1709 25.1646V24.5346C62.5694 24.977 61.8373 25.2058 61.0909 25.1846C60.5685 25.2036 60.0477 25.1169 59.5596 24.9296C59.0716 24.7422 58.6265 24.4583 58.2509 24.0946C57.53 23.3488 57.127 22.352 57.127 21.3146C57.127 20.2773 57.53 19.2805 58.2509 18.5346C58.6283 18.1742 59.074 17.893 59.5617 17.7075C60.0495 17.522 60.5694 17.436 61.0909 17.4546C61.8589 17.4343 62.6107 17.6779 63.2209 18.1446V17.9846C63.2163 17.9463 63.2203 17.9074 63.2326 17.8708C63.2449 17.8343 63.2652 17.8009 63.292 17.7731C63.3188 17.7453 63.3515 17.7239 63.3876 17.7103C63.4238 17.6967 63.4625 17.6914 63.5009 17.6946L65.1609 17.6846ZM61.2809 23.4046C61.5385 23.4126 61.7948 23.3639 62.0315 23.2619C62.2682 23.16 62.4797 23.0073 62.6509 22.8146C62.9834 22.3853 63.1638 21.8576 63.1638 21.3146C63.1638 20.7716 62.9834 20.244 62.6509 19.8146C62.4803 19.6246 62.2701 19.4741 62.0352 19.3739C61.8002 19.2737 61.5462 19.2262 61.2909 19.2346C61.0303 19.2264 60.7711 19.2749 60.5311 19.3768C60.2911 19.4787 60.0761 19.6315 59.9009 19.8246C59.5326 20.2353 59.3389 20.7734 59.3609 21.3246C59.3429 21.8704 59.5323 22.4028 59.8909 22.8146C60.0665 23.0072 60.2816 23.1597 60.5215 23.2615C60.7614 23.3633 61.0204 23.4121 61.2809 23.4046Z" fill="white"/>
<path d="M74.07 24.1348C73.2242 24.8287 72.164 25.2079 71.07 25.2079C69.976 25.2079 68.9158 24.8287 68.07 24.1348C67.3445 23.3772 66.9395 22.3688 66.9395 21.3198C66.9395 20.2709 67.3445 19.2624 68.07 18.5048C68.9166 17.8127 69.9765 17.4346 71.07 17.4346C72.1635 17.4346 73.2234 17.8127 74.07 18.5048C74.7949 19.2607 75.1996 20.2675 75.1996 21.3148C75.1996 22.3621 74.7949 23.3689 74.07 24.1248V24.1348ZM69.64 22.8148C69.8317 22.9972 70.0577 23.1397 70.3049 23.2341C70.5521 23.3285 70.8155 23.373 71.08 23.3648C71.3428 23.3716 71.6044 23.3266 71.8498 23.2322C72.0952 23.1378 72.3195 22.996 72.51 22.8148C72.8588 22.4044 73.0503 21.8834 73.0503 21.3448C73.0503 20.8062 72.8588 20.2852 72.51 19.8748C72.3195 19.6937 72.0952 19.5518 71.8498 19.4575C71.6044 19.3631 71.3428 19.318 71.08 19.3248C70.8155 19.3167 70.5521 19.3611 70.3049 19.4555C70.0577 19.5499 69.8317 19.6925 69.64 19.8748C69.2913 20.2852 69.0998 20.8062 69.0998 21.3448C69.0998 21.8834 69.2913 22.4044 69.64 22.8148Z" fill="white"/>
<path d="M78.809 15.9848C78.5447 16.2162 78.2053 16.3437 77.854 16.3437C77.5027 16.3437 77.1634 16.2162 76.899 15.9848C76.7792 15.8717 76.6837 15.7353 76.6184 15.584C76.5532 15.4327 76.5195 15.2696 76.5195 15.1048C76.5195 14.94 76.5532 14.777 76.6184 14.6256C76.6837 14.4743 76.7792 14.3379 76.899 14.2248C77.1661 13.9992 77.5044 13.8755 77.854 13.8755C78.2036 13.8755 78.5419 13.9992 78.809 14.2248C78.9289 14.3379 79.0244 14.4743 79.0896 14.6256C79.1549 14.777 79.1885 14.94 79.1885 15.1048C79.1885 15.2696 79.1549 15.4327 79.0896 15.584C79.0244 15.7353 78.9289 15.8717 78.809 15.9848ZM79.019 25.2048C78.4246 25.234 77.8373 25.0652 77.349 24.7248C77.1487 24.5718 76.9878 24.373 76.88 24.1451C76.7721 23.9172 76.7203 23.6668 76.729 23.4148V17.9748C76.7242 17.9356 76.7283 17.8957 76.7412 17.8583C76.754 17.8209 76.7752 17.787 76.8032 17.759C76.8312 17.731 76.8651 17.7098 76.9025 17.697C76.9399 17.6841 76.9798 17.68 77.019 17.6848H78.699C78.889 17.6848 78.979 17.7848 78.979 17.9748V22.6948C78.979 23.0748 79.149 23.2648 79.489 23.2648C79.6407 23.2703 79.7923 23.2534 79.939 23.2148C80.139 23.2148 80.249 23.2748 80.259 23.4548L80.409 24.7048C80.4162 24.7413 80.4155 24.7788 80.407 24.815C80.3985 24.8511 80.3823 24.8851 80.3595 24.9144C80.3368 24.9438 80.308 24.968 80.2752 24.9853C80.2423 25.0026 80.2061 25.0127 80.169 25.0148C79.7978 25.1371 79.4099 25.2012 79.019 25.2048Z" fill="white"/>
<path d="M86.5908 17.4447C87.1156 17.424 87.6391 17.5089 88.1304 17.6944C88.6217 17.88 89.0708 18.1623 89.4508 18.5247C90.158 19.2837 90.5512 20.2824 90.5512 21.3197C90.5512 22.357 90.158 23.3558 89.4508 24.1147C89.0726 24.4804 88.6241 24.7655 88.1325 24.9528C87.6409 25.1402 87.1165 25.2259 86.5908 25.2047C85.842 25.2214 85.1081 24.9932 84.5008 24.5547V28.1647C84.5008 28.3547 84.4008 28.4447 84.2108 28.4447H82.5308C82.4925 28.4519 82.453 28.4496 82.4157 28.4381C82.3785 28.4265 82.3446 28.4061 82.317 28.3785C82.2895 28.3509 82.269 28.3171 82.2575 28.2798C82.2459 28.2426 82.2437 28.2031 82.2508 28.1647V19.9647C82.2626 19.8845 82.2554 19.8027 82.23 19.7257C82.2045 19.6488 82.1613 19.5788 82.104 19.5215C82.0467 19.4642 81.9768 19.4211 81.8998 19.3956C81.8229 19.3701 81.741 19.363 81.6608 19.3747H81.3308C81.1108 19.3747 81.0008 19.2947 81.0008 19.1347V17.9547C80.9956 17.8817 81.0156 17.8091 81.0575 17.7491C81.0993 17.689 81.1605 17.6451 81.2308 17.6247C81.5767 17.499 81.9428 17.438 82.3108 17.4447C82.6778 17.4122 83.0461 17.4901 83.3686 17.6682C83.691 17.8464 83.953 18.1168 84.1208 18.4447C84.4429 18.1189 84.8281 17.8622 85.2528 17.6902C85.6775 17.5183 86.1328 17.4347 86.5908 17.4447ZM85.0308 22.8147C85.2091 23.0011 85.4233 23.1494 85.6605 23.2507C85.8977 23.352 86.1529 23.4042 86.4108 23.4042C86.6687 23.4042 86.924 23.352 87.1611 23.2507C87.3983 23.1494 87.6125 23.0011 87.7908 22.8147C88.1664 22.3958 88.3637 21.8469 88.3408 21.2847C88.367 20.7221 88.1692 20.1719 87.7908 19.7547C87.6125 19.5684 87.3983 19.4201 87.1611 19.3188C86.924 19.2174 86.6687 19.1652 86.4108 19.1652C86.1529 19.1652 85.8977 19.2174 85.6605 19.3188C85.4233 19.4201 85.2091 19.5684 85.0308 19.7547C84.667 20.1793 84.4776 20.726 84.5008 21.2847C84.4805 21.843 84.6696 22.3887 85.0308 22.8147Z" fill="white"/>
<path d="M95.2691 25.2046C94.3714 25.2415 93.4813 25.0268 92.6991 24.5846C92.3853 24.3956 92.1181 24.1383 91.9172 23.8319C91.7164 23.5255 91.5872 23.1778 91.5391 22.8146C91.5391 22.6146 91.6091 22.5146 91.8291 22.5146H93.2991C93.369 22.5174 93.4369 22.5393 93.4951 22.5782C93.5533 22.617 93.5997 22.6711 93.6291 22.7346C93.8391 23.2746 94.3891 23.5446 95.2691 23.5446C95.5761 23.5587 95.8817 23.4968 96.1591 23.3646C96.2549 23.3214 96.337 23.253 96.3969 23.1667C96.4568 23.0804 96.4921 22.9794 96.4991 22.8746C96.4991 22.6146 96.3391 22.4346 96.0191 22.3146C95.6396 22.1883 95.2472 22.1044 94.8491 22.0646C94.3776 22.0112 93.91 21.9277 93.4491 21.8146C93.0009 21.7132 92.5934 21.4798 92.2791 21.1446C92.094 20.9168 91.9578 20.6533 91.8788 20.3706C91.7999 20.0879 91.78 19.7919 91.8203 19.5012C91.8607 19.2104 91.9604 18.931 92.1133 18.6805C92.2662 18.4299 92.469 18.2135 92.7091 18.0446C93.4299 17.5855 94.2756 17.3618 95.1291 17.4046C95.9555 17.3767 96.7731 17.5811 97.4891 17.9946C97.7777 18.1581 98.0261 18.3838 98.2164 18.6554C98.4067 18.927 98.534 19.2376 98.5891 19.5646C98.5891 19.7646 98.4991 19.8646 98.3191 19.8646H96.8391C96.7768 19.8683 96.7148 19.8531 96.6613 19.821C96.6078 19.7889 96.5652 19.7413 96.5391 19.6846C96.4402 19.4478 96.254 19.258 96.0191 19.1546C95.7541 19.016 95.4581 18.9471 95.1591 18.9546C94.866 18.9387 94.5736 18.9972 94.3091 19.1246C94.2159 19.1606 94.1357 19.2236 94.0786 19.3056C94.0216 19.3876 93.9904 19.4848 93.9891 19.5846C93.9955 19.7214 94.0456 19.8525 94.132 19.9587C94.2184 20.0649 94.3365 20.1405 94.4691 20.1746C94.8531 20.3194 95.2524 20.42 95.6591 20.4746C96.1268 20.5362 96.5908 20.623 97.0491 20.7346C97.4973 20.8361 97.9048 21.0694 98.2191 21.4046C98.3873 21.5893 98.5171 21.8054 98.6012 22.0406C98.6853 22.2757 98.722 22.5252 98.7091 22.7746C98.7177 23.1203 98.6366 23.4623 98.4736 23.7673C98.3106 24.0722 98.0713 24.3297 97.7791 24.5146C97.032 24.9943 96.1565 25.2349 95.2691 25.2046Z" fill="white"/>
<path d="M109.281 24.7048C109.287 24.7403 109.285 24.7766 109.277 24.8115C109.268 24.8465 109.253 24.8793 109.231 24.9082C109.21 24.9371 109.183 24.9614 109.152 24.9797C109.121 24.998 109.087 25.0099 109.051 25.0148C108.686 25.134 108.305 25.1981 107.921 25.2048C107.541 25.2442 107.157 25.1848 106.807 25.0324C106.456 24.88 106.151 24.6397 105.921 24.3348C105.215 24.9421 104.301 25.2537 103.371 25.2048C102.939 25.2247 102.508 25.154 102.105 24.9973C101.702 24.8406 101.336 24.6013 101.031 24.2948C100.728 23.9737 100.493 23.5947 100.34 23.1806C100.187 22.7665 100.119 22.3258 100.141 21.8848V17.9748C100.141 17.7848 100.231 17.6848 100.421 17.6848H102.101C102.291 17.6848 102.381 17.7848 102.381 17.9748V21.5848C102.363 22.0346 102.516 22.4744 102.811 22.8148C102.958 22.9708 103.137 23.0934 103.335 23.1745C103.533 23.2556 103.747 23.2932 103.961 23.2848C104.18 23.2944 104.399 23.2605 104.605 23.1849C104.811 23.1094 105 22.9938 105.161 22.8448C105.313 22.6878 105.432 22.5012 105.509 22.2965C105.587 22.0918 105.621 21.8734 105.611 21.6548V17.9748C105.611 17.7848 105.701 17.6848 105.891 17.6848H107.591C107.781 17.6848 107.871 17.7848 107.871 17.9748V22.6848C107.871 23.0748 108.041 23.2648 108.371 23.2648C108.526 23.2708 108.681 23.254 108.831 23.2148C108.869 23.2042 108.909 23.2023 108.947 23.2093C108.986 23.2162 109.022 23.2318 109.054 23.2549C109.086 23.278 109.112 23.308 109.131 23.3426C109.149 23.3772 109.159 23.4156 109.161 23.4548L109.281 24.7048Z" fill="white"/>
<path d="M125.171 24.7048C125.18 24.7406 125.181 24.778 125.174 24.8142C125.166 24.8503 125.151 24.8845 125.129 24.9141C125.107 24.9437 125.079 24.9681 125.046 24.9855C125.014 25.003 124.978 25.013 124.941 25.0148C124.569 25.1357 124.182 25.1998 123.791 25.2048C123.196 25.2355 122.609 25.0666 122.121 24.7248C121.91 24.5784 121.739 24.3823 121.622 24.1538C121.505 23.9253 121.446 23.6714 121.451 23.4148V21.0648C121.472 20.6164 121.322 20.1767 121.031 19.8348C120.891 19.6785 120.717 19.5553 120.524 19.474C120.33 19.3928 120.121 19.3555 119.911 19.3648C119.722 19.3577 119.534 19.3936 119.36 19.4698C119.187 19.546 119.034 19.6606 118.911 19.8048C118.647 20.1399 118.512 20.5587 118.531 20.9848V24.6748C118.531 24.8648 118.441 24.9648 118.251 24.9648H116.561C116.522 24.9697 116.482 24.9655 116.445 24.9527C116.407 24.9398 116.373 24.9186 116.345 24.8906C116.317 24.8627 116.296 24.8287 116.283 24.7913C116.27 24.7539 116.266 24.7141 116.271 24.6748V21.0648C116.293 20.6213 116.154 20.1847 115.881 19.8348C115.759 19.6878 115.606 19.5695 115.433 19.4883C115.261 19.4071 115.072 19.3649 114.881 19.3648C114.677 19.3566 114.474 19.3915 114.284 19.4674C114.094 19.5432 113.923 19.6582 113.781 19.8048C113.495 20.1292 113.348 20.553 113.371 20.9848V24.6748C113.376 24.7141 113.372 24.7539 113.359 24.7913C113.346 24.8287 113.325 24.8627 113.297 24.8906C113.269 24.9186 113.235 24.9398 113.198 24.9527C113.16 24.9655 113.12 24.9697 113.081 24.9648H111.451C111.261 24.9648 111.171 24.8648 111.171 24.6748V19.9648C111.183 19.8846 111.176 19.8028 111.15 19.7258C111.125 19.6489 111.082 19.5789 111.024 19.5216C110.967 19.4643 110.897 19.4212 110.82 19.3957C110.743 19.3702 110.661 19.3631 110.581 19.3748H110.251C110.031 19.3748 109.921 19.2948 109.921 19.1348V17.9548C109.916 17.8818 109.936 17.8092 109.978 17.7492C110.02 17.6891 110.081 17.6452 110.151 17.6248C110.497 17.4991 110.863 17.4381 111.231 17.4448C111.584 17.4147 111.939 17.4851 112.254 17.6479C112.569 17.8107 112.831 18.0592 113.011 18.3648C113.348 18.0451 113.748 17.7983 114.185 17.64C114.622 17.4817 115.087 17.4153 115.551 17.4448C116.002 17.4228 116.451 17.5073 116.863 17.6915C117.275 17.8757 117.637 18.1543 117.921 18.5048C118.252 18.1451 118.659 17.8635 119.112 17.6801C119.565 17.4968 120.053 17.4165 120.541 17.4448C120.977 17.4244 121.413 17.4947 121.821 17.6514C122.229 17.808 122.6 18.0475 122.911 18.3548C123.215 18.6753 123.45 19.0542 123.603 19.4685C123.756 19.8827 123.824 20.3238 123.801 20.7648V22.6948C123.801 23.0748 123.971 23.2648 124.291 23.2648C124.446 23.272 124.601 23.2552 124.751 23.2148C124.958 23.2148 125.068 23.2948 125.081 23.4548L125.171 24.7048Z" fill="white"/>
<path d="M7.91 16.3847C8.64777 13.4194 10.3564 10.7861 12.7639 8.90424C15.1714 7.02234 18.1393 6 21.195 6C24.2507 6 27.2186 7.02234 29.6261 8.90424C32.0336 10.7861 33.7422 13.4194 34.48 16.3847H33.28C31.2557 16.3549 29.2729 16.9599 27.61 18.1147C27.514 18.1842 27.4138 18.2477 27.31 18.3047H27.17C27.0662 18.2477 26.966 18.1842 26.87 18.1147C25.1924 16.9866 23.2166 16.3841 21.195 16.3841C19.1734 16.3841 17.1976 16.9866 15.52 18.1147C15.424 18.1842 15.3238 18.2477 15.22 18.3047H15.08C14.9762 18.2477 14.876 18.1842 14.78 18.1147C13.1171 16.9599 11.1343 16.3549 9.11 16.3847H7.91ZM31.12 22.6547C31.736 22.175 32.4995 21.924 33.28 21.9447H34.89V18.7347H33.28C31.9052 18.7181 30.5619 19.146 29.45 19.9547C28.8243 20.416 28.0674 20.6649 27.29 20.6649C26.5126 20.6649 25.7557 20.416 25.13 19.9547C23.9899 19.1611 22.6341 18.7356 21.245 18.7356C19.8559 18.7356 18.5001 19.1611 17.36 19.9547C16.7343 20.416 15.9774 20.6649 15.2 20.6649C14.4226 20.6649 13.6657 20.416 13.04 19.9547C11.9144 19.1356 10.5518 18.7072 9.16 18.7347H7.5V21.9447H9.11C9.89051 21.924 10.654 22.175 11.27 22.6547C12.408 23.4489 13.7623 23.8747 15.15 23.8747C16.5377 23.8747 17.892 23.4489 19.03 22.6547C19.6468 22.1765 20.4097 21.9257 21.19 21.9447C21.9708 21.9223 22.7348 22.1735 23.35 22.6547C24.4901 23.4484 25.8459 23.8738 27.235 23.8738C28.6241 23.8738 29.9799 23.4484 31.12 22.6547ZM31.12 28.3947C31.736 27.915 32.4995 27.664 33.28 27.6847H34.89V24.4747H33.28C31.9052 24.4581 30.5619 24.886 29.45 25.6947C28.8243 26.156 28.0674 26.4049 27.29 26.4049C26.5126 26.4049 25.7557 26.156 25.13 25.6947C23.9899 24.9011 22.6341 24.4757 21.245 24.4757C19.8559 24.4757 18.5001 24.9011 17.36 25.6947C16.7343 26.156 15.9774 26.4049 15.2 26.4049C14.4226 26.4049 13.6657 26.156 13.04 25.6947C11.9144 24.8757 10.5518 24.4472 9.16 24.4747H7.5V27.6847H9.11C9.89051 27.664 10.654 27.915 11.27 28.3947C12.408 29.1889 13.7623 29.6147 15.15 29.6147C16.5377 29.6147 17.892 29.1889 19.03 28.3947C19.6468 27.9165 20.4097 27.6657 21.19 27.6847C21.9708 27.6623 22.7348 27.9135 23.35 28.3947C24.4901 29.1884 25.8459 29.6138 27.235 29.6138C28.6241 29.6138 29.9799 29.1884 31.12 28.3947Z" fill="white"/>
</svg>
