<svg width="154" height="38" viewBox="0 0 154 38" fill="none" xmlns="http://www.w3.org/2000/svg">
<g clip-path="url(#clip0_41_290)">
<path d="M25.1094 19.0251C26.358 17.9795 27.152 16.409 27.152 14.653C27.152 12.8971 26.358 11.3266 25.1094 10.281C25.2525 10.2117 25.3902 10.1365 25.5214 10.055C26.3496 9.54008 27.3271 9.24268 28.3741 9.24268C31.3622 9.24268 33.7845 11.665 33.7845 14.653C33.7845 17.6411 31.3622 20.0634 28.3741 20.0634C27.3271 20.0634 26.3496 19.766 25.5214 19.2511C25.3902 19.1696 25.2525 19.0944 25.1094 19.0251Z" fill="white"/>
<path d="M23.6065 15.505C24.165 13.9752 24.0674 12.2181 23.1894 10.6974C22.3114 9.17669 20.8385 8.2136 19.2344 7.93239C19.3237 7.80086 19.4053 7.66687 19.4781 7.53069C19.9379 6.67064 20.6358 5.92431 21.5425 5.40081C24.1303 3.90677 27.4393 4.7934 28.9333 7.38115C30.4273 9.96891 29.5407 13.2779 26.9529 14.7719C26.0462 15.2954 25.0509 15.5266 24.0762 15.4948C23.9219 15.4897 23.765 15.4935 23.6065 15.505Z" fill="white"/>
<path d="M20.5453 13.2076C20.2641 11.6035 19.301 10.1306 17.7803 9.25261C16.2596 8.37463 14.5025 8.27703 12.9727 8.83554C12.9843 8.677 12.988 8.52013 12.9829 8.36581C12.9511 7.39108 13.1823 6.3958 13.7058 5.48906C15.1999 2.90131 18.5088 2.01468 21.0966 3.50872C23.6843 5.00276 24.571 8.31171 23.0769 10.8995C22.5534 11.8062 21.8071 12.5041 20.947 12.9639C20.8109 13.0367 20.6769 13.1183 20.5453 13.2076Z" fill="white"/>
<path d="M16.7434 12.7489C15.6978 11.5003 14.1273 10.7063 12.3713 10.7063C10.6153 10.7063 9.04488 11.5003 7.99929 12.7489C7.93003 12.6058 7.85481 12.4681 7.77328 12.3369C7.25834 11.5087 6.96094 10.5312 6.96094 9.48414C6.96094 6.49605 9.38326 4.07373 12.3713 4.07373C15.3594 4.07373 17.7817 6.49605 17.7817 9.48414C17.7817 10.5312 17.4843 11.5087 16.9694 12.3369C16.8878 12.4681 16.8126 12.6058 16.7434 12.7489Z" fill="white"/>
<path d="M13.2226 14.2516C11.6928 13.6931 9.93564 13.7907 8.41493 14.6686C6.89422 15.5466 5.93113 17.0195 5.64993 18.6236C5.5184 18.5343 5.3844 18.4527 5.24822 18.3799C4.38817 17.9201 3.64184 17.2222 3.11834 16.3155C1.62429 13.7277 2.51092 10.4188 5.09868 8.92474C7.68644 7.43069 10.9954 8.31732 12.4895 10.9051C13.013 11.8118 13.2442 12.8071 13.2123 13.7818C13.2073 13.9361 13.211 14.093 13.2226 14.2516Z" fill="white"/>
<path d="M10.9247 17.3135C9.32056 17.5947 7.84767 18.5578 6.96969 20.0785C6.09171 21.5992 5.99411 23.3563 6.55263 24.8861C6.39407 24.8745 6.23718 24.8708 6.08284 24.8758C5.10812 24.9077 4.11284 24.6765 3.20611 24.153C0.618349 22.6589 -0.268282 19.35 1.22576 16.7622C2.7198 14.1745 6.02875 13.2878 8.61651 14.7819C9.52324 15.3054 10.2211 16.0517 10.6809 16.9117C10.7537 17.0479 10.8354 17.1819 10.9247 17.3135Z" fill="white"/>
<path d="M10.4642 21.1143C9.21557 22.1599 8.42154 23.7304 8.42154 25.4863C8.42154 27.2423 9.21557 28.8128 10.4642 29.8584C10.3211 29.9276 10.1834 30.0029 10.0522 30.0844C9.22401 30.5993 8.24647 30.8967 7.19946 30.8967C4.21138 30.8967 1.78906 28.4744 1.78906 25.4863C1.78906 22.4982 4.21138 20.0759 7.19946 20.0759C8.24647 20.0759 9.22401 20.3733 10.0522 20.8883C10.1834 20.9698 10.3211 21.045 10.4642 21.1143Z" fill="white"/>
<path d="M11.9667 24.6355C11.4081 26.1653 11.5057 27.9224 12.3837 29.4431C13.2617 30.9639 14.7346 31.9269 16.3387 32.2081C16.2494 32.3397 16.1678 32.4737 16.095 32.6099C15.6352 33.4699 14.9373 34.2162 14.0306 34.7397C11.4428 36.2338 8.13387 35.3471 6.63983 32.7594C5.14578 30.1716 6.03242 26.8627 8.62017 25.3686C9.52691 24.8451 10.5222 24.6139 11.4969 24.6458C11.6512 24.6508 11.8081 24.6471 11.9667 24.6355Z" fill="white"/>
<path d="M15.0288 26.9341C15.31 28.5382 16.2731 30.0111 17.7938 30.889C19.3145 31.767 21.0717 31.8646 22.6015 31.3061C22.5899 31.4647 22.5862 31.6215 22.5912 31.7759C22.6231 32.7506 22.3919 33.7459 21.8684 34.6526C20.3743 37.2404 17.0654 38.127 14.4776 36.6329C11.8898 35.1389 11.0032 31.83 12.4973 29.2422C13.0208 28.3355 13.7671 27.6376 14.6271 27.1778C14.7633 27.105 14.8973 27.0233 15.0288 26.9341Z" fill="white"/>
<path d="M18.8293 27.3936C19.8749 28.6422 21.4454 29.4362 23.2014 29.4362C24.9574 29.4362 26.5279 28.6422 27.5735 27.3936C27.6427 27.5367 27.7179 27.6744 27.7995 27.8055C28.3144 28.6337 28.6118 29.6113 28.6118 30.6583C28.6118 33.6464 26.1895 36.0687 23.2014 36.0687C20.2133 36.0687 17.791 33.6464 17.791 30.6583C17.791 29.6113 18.0884 28.6337 18.6033 27.8055C18.6849 27.6744 18.7601 27.5367 18.8293 27.3936Z" fill="white"/>
<path d="M22.3516 25.8913C23.8814 26.4498 25.6385 26.3522 27.1592 25.4743C28.6799 24.5963 29.643 23.1234 29.9242 21.5193C30.0557 21.6085 30.1897 21.6902 30.3259 21.763C31.186 22.2228 31.9323 22.9207 32.4558 23.8274C33.9499 26.4152 33.0632 29.7241 30.4755 31.2182C27.8877 32.7122 24.5788 31.8256 23.0847 29.2378C22.5612 28.3311 22.33 27.3358 22.3618 26.3611C22.3669 26.2068 22.3632 26.0499 22.3516 25.8913Z" fill="white"/>
<path d="M28.6086 20.0587C28.6075 20.0606 28.6064 20.0625 28.6053 20.0644C27.7274 21.5851 26.2545 22.5482 24.6504 22.8294C24.7396 22.961 24.8213 23.095 24.8941 23.2311C25.3539 24.0912 26.0518 24.8375 26.9585 25.361C29.5463 26.8551 32.8552 25.9684 34.3493 23.3807C35.6301 21.1621 35.1612 18.4135 33.3707 16.7329C32.5841 18.6206 30.7588 19.9671 28.6086 20.0587Z" fill="white"/>
<path d="M47.7609 9.84101V26H44.1797V9.84101H47.7609ZM44.7474 26L44.8129 22.8337H54.0934V26H44.7474ZM54.6539 20.519C54.6539 19.369 54.8941 18.3645 55.3745 17.5056C55.8549 16.6321 56.5318 15.9552 57.4053 15.4748C58.2787 14.9944 59.2977 14.7542 60.4624 14.7542C61.627 14.7542 62.6387 14.9944 63.4976 15.4748C64.3711 15.9552 65.048 16.6321 65.5284 17.5056C66.0088 18.3645 66.249 19.369 66.249 20.519C66.249 21.6691 66.0088 22.6736 65.5284 23.5325C65.048 24.3914 64.3711 25.061 63.4976 25.5414C62.6387 26.0218 61.627 26.262 60.4624 26.262C59.2977 26.262 58.2787 26.0218 57.4053 25.5414C56.5318 25.061 55.8549 24.3914 55.3745 23.5325C54.8941 22.6736 54.6539 21.6691 54.6539 20.519ZM58.0385 20.4972C58.0385 21.0504 58.1404 21.5381 58.3442 21.9603C58.548 22.3679 58.8319 22.6881 59.1958 22.9211C59.5598 23.1394 59.982 23.2486 60.4624 23.2486C60.9428 23.2486 61.3649 23.1394 61.7289 22.9211C62.0928 22.6881 62.3694 22.3679 62.5587 21.9603C62.7625 21.5381 62.8644 21.0504 62.8644 20.4972C62.8644 19.944 62.7625 19.4636 62.5587 19.056C62.3694 18.6484 62.0928 18.3354 61.7289 18.117C61.3649 17.8841 60.9428 17.7676 60.4624 17.7676C59.982 17.7676 59.5598 17.8841 59.1958 18.117C58.8319 18.3354 58.548 18.6484 58.3442 19.056C58.1404 19.4636 58.0385 19.944 58.0385 20.4972ZM67.0084 20.3444C67.0084 19.2234 67.234 18.2408 67.6853 17.3964C68.1366 16.5521 68.7553 15.897 69.5414 15.4311C70.3275 14.9507 71.2301 14.7105 72.2491 14.7105C73.108 14.7105 73.865 14.8852 74.5201 15.2346C75.1898 15.584 75.641 16.0426 75.874 16.6103L75.5464 16.8287L75.8085 15.0818H78.8437V25.3012C78.8437 26.5823 78.5962 27.6887 78.1013 28.6204C77.6063 29.5666 76.9003 30.2945 75.9831 30.804C75.0806 31.3135 74.0033 31.5683 72.7513 31.5683C71.7032 31.5683 70.757 31.3572 69.9126 30.935C69.0828 30.5274 68.4059 29.9451 67.8818 29.1881C67.3723 28.4311 67.0666 27.5577 66.9647 26.5677H70.3712C70.4003 27.1937 70.6478 27.6741 71.1136 28.009C71.594 28.3438 72.2054 28.5112 72.9479 28.5112C73.7777 28.5112 74.4182 28.2783 74.8695 27.8124C75.3208 27.3611 75.5464 26.757 75.5464 26V23.6853L75.8521 23.9692C75.6192 24.537 75.1679 24.9955 74.4983 25.3449C73.8286 25.6943 73.0571 25.869 72.1836 25.869C71.1791 25.869 70.2838 25.6361 69.4977 25.1702C68.7262 24.7044 68.1147 24.0566 67.6634 23.2268C67.2267 22.397 67.0084 21.4362 67.0084 20.3444ZM70.4148 20.257C70.4148 20.7811 70.524 21.2469 70.7424 21.6545C70.9608 22.0622 71.2519 22.3824 71.6159 22.6153C71.9798 22.8337 72.3801 22.9429 72.8169 22.9429C73.3409 22.9429 73.7995 22.8337 74.1926 22.6153C74.6002 22.3824 74.9132 22.0622 75.1315 21.6545C75.3644 21.2469 75.4809 20.7811 75.4809 20.257C75.4809 19.7184 75.3644 19.2598 75.1315 18.8813C74.8986 18.4883 74.5783 18.1825 74.1707 17.9642C73.7777 17.7458 73.3191 17.6366 72.795 17.6366C72.3583 17.6366 71.958 17.7458 71.594 17.9642C71.2301 18.1825 70.9389 18.4883 70.7206 18.8813C70.5167 19.2744 70.4148 19.7329 70.4148 20.257ZM80.0422 20.519C80.0422 19.369 80.2824 18.3645 80.7628 17.5056C81.2432 16.6321 81.9201 15.9552 82.7936 15.4748C83.667 14.9944 84.6861 14.7542 85.8507 14.7542C87.0153 14.7542 88.027 14.9944 88.886 15.4748C89.7594 15.9552 90.4363 16.6321 90.9167 17.5056C91.3971 18.3645 91.6373 19.369 91.6373 20.519C91.6373 21.6691 91.3971 22.6736 90.9167 23.5325C90.4363 24.3914 89.7594 25.061 88.886 25.5414C88.027 26.0218 87.0153 26.262 85.8507 26.262C84.6861 26.262 83.667 26.0218 82.7936 25.5414C81.9201 25.061 81.2432 24.3914 80.7628 23.5325C80.2824 22.6736 80.0422 21.6691 80.0422 20.519ZM83.4268 20.4972C83.4268 21.0504 83.5287 21.5381 83.7325 21.9603C83.9363 22.3679 84.2202 22.6881 84.5842 22.9211C84.9481 23.1394 85.3703 23.2486 85.8507 23.2486C86.3311 23.2486 86.7533 23.1394 87.1172 22.9211C87.4811 22.6881 87.7577 22.3679 87.947 21.9603C88.1508 21.5381 88.2527 21.0504 88.2527 20.4972C88.2527 19.944 88.1508 19.4636 87.947 19.056C87.7577 18.6484 87.4811 18.3354 87.1172 18.117C86.7533 17.8841 86.3311 17.7676 85.8507 17.7676C85.3703 17.7676 84.9481 17.8841 84.5842 18.117C84.2202 18.3354 83.9363 18.6484 83.7325 19.056C83.5287 19.4636 83.4268 19.944 83.4268 20.4972ZM93.0518 26V15.0818H96.4364V26H93.0518ZM94.755 13.3785C94.2164 13.3785 93.7578 13.1965 93.3793 12.8326C93.0154 12.4541 92.8334 11.9955 92.8334 11.4569C92.8334 10.9183 93.0154 10.467 93.3793 10.103C93.7578 9.7391 94.2164 9.55713 94.755 9.55713C95.2791 9.55713 95.7231 9.7391 96.087 10.103C96.4655 10.467 96.6548 10.9183 96.6548 11.4569C96.6548 11.9955 96.4655 12.4541 96.087 12.8326C95.7231 13.1965 95.2791 13.3785 94.755 13.3785ZM98.625 31.2408V15.0818H101.704L101.878 16.4138C102.184 15.9043 102.672 15.4967 103.341 15.1909C104.011 14.8852 104.732 14.7324 105.503 14.7324C106.522 14.7324 107.41 14.958 108.167 15.4093C108.924 15.8606 109.521 16.5084 109.958 17.3528C110.394 18.1825 110.627 19.187 110.657 20.3662C110.686 21.5162 110.496 22.5426 110.089 23.4451C109.681 24.3331 109.092 25.0319 108.32 25.5414C107.548 26.051 106.617 26.3057 105.525 26.3057C104.768 26.3057 104.062 26.1747 103.407 25.9127C102.752 25.6506 102.264 25.3158 101.944 24.9082V31.2408H98.625ZM102.009 20.5409C102.009 21.0795 102.118 21.5599 102.337 21.9821C102.57 22.3897 102.883 22.71 103.276 22.9429C103.683 23.1613 104.149 23.2704 104.673 23.2704C105.212 23.2704 105.671 23.154 106.049 22.9211C106.442 22.6881 106.741 22.3679 106.944 21.9603C107.163 21.5526 107.272 21.0795 107.272 20.5409C107.272 20.0022 107.163 19.5291 106.944 19.1215C106.741 18.7139 106.442 18.3936 106.049 18.1607C105.671 17.9278 105.212 17.8113 104.673 17.8113C104.149 17.8113 103.683 17.9278 103.276 18.1607C102.883 18.3791 102.57 18.6921 102.337 19.0997C102.118 19.5073 102.009 19.9877 102.009 20.5409ZM111.233 22.5498H114.269C114.269 22.9283 114.392 23.2268 114.64 23.4451C114.902 23.6635 115.28 23.7727 115.775 23.7727C116.066 23.7727 116.307 23.7363 116.496 23.6635C116.7 23.5907 116.853 23.4888 116.954 23.3578C117.071 23.2122 117.129 23.0521 117.129 22.8774C117.129 22.6881 117.064 22.528 116.933 22.397C116.816 22.266 116.612 22.1641 116.321 22.0913L114.4 21.589C113.322 21.2979 112.558 20.8684 112.107 20.3007C111.655 19.7329 111.43 19.0851 111.43 18.3572C111.43 17.6293 111.612 16.9961 111.976 16.4575C112.354 15.9043 112.864 15.4821 113.504 15.1909C114.145 14.8852 114.865 14.7324 115.666 14.7324C116.874 14.7324 117.864 15.0672 118.636 15.7369C119.422 16.3919 119.837 17.2872 119.881 18.4227H116.845C116.86 18.0442 116.751 17.7458 116.518 17.5274C116.285 17.2945 115.979 17.1781 115.601 17.1781C115.266 17.1781 114.989 17.2654 114.771 17.4401C114.567 17.6002 114.465 17.8259 114.465 18.117C114.465 18.3936 114.567 18.5974 114.771 18.7285C114.975 18.8449 115.251 18.9468 115.601 19.0342L117.544 19.5146C118.447 19.7329 119.131 20.1042 119.597 20.6282C120.063 21.1523 120.295 21.822 120.295 22.6372C120.295 23.7581 119.881 24.6461 119.051 25.3012C118.221 25.9563 117.144 26.2839 115.819 26.2839C114.451 26.2839 113.351 25.9418 112.522 25.2576C111.706 24.5588 111.277 23.6562 111.233 22.5498ZM125.661 26.2839C124.38 26.2839 123.39 25.8835 122.691 25.0829C121.993 24.2822 121.643 23.234 121.643 21.9384V15.0818H125.006V20.7156C125.006 21.7346 125.188 22.4188 125.552 22.7682C125.916 23.1176 126.396 23.2923 126.993 23.2923C127.765 23.2923 128.296 23.0739 128.587 22.6372C128.878 22.2005 129.024 21.5745 129.024 20.7592V15.0818H132.387V26H129.221L129.002 24.7772C128.667 25.2284 128.194 25.5924 127.583 25.869C126.971 26.1456 126.331 26.2839 125.661 26.2839ZM137.938 26H134.553V15.0818H137.698L137.938 16.9597L137.567 16.5666C137.858 16.0134 138.295 15.5694 138.877 15.2346C139.474 14.8852 140.114 14.7105 140.799 14.7105C141.876 14.7105 142.72 14.9507 143.332 15.4311C143.958 15.9115 144.409 16.5448 144.685 17.3309H144.161C144.336 16.5448 144.758 15.9115 145.428 15.4311C146.098 14.9507 146.898 14.7105 147.83 14.7105C149.242 14.7105 150.283 15.089 150.953 15.846C151.622 16.603 151.957 17.6075 151.957 18.8595V26H148.682V19.6893C148.682 19.005 148.514 18.4955 148.179 18.1607C147.859 17.8259 147.43 17.6585 146.891 17.6585C146.571 17.6585 146.265 17.7313 145.974 17.8768C145.683 18.0078 145.442 18.248 145.253 18.5974C145.064 18.9323 144.969 19.4127 144.969 20.0386V26H141.65V19.6893C141.65 19.005 141.49 18.5028 141.17 18.1825C140.849 17.8477 140.42 17.6803 139.881 17.6803C139.561 17.6803 139.248 17.7531 138.942 17.8987C138.651 18.0297 138.411 18.2699 138.222 18.6193C138.033 18.9541 137.938 19.4272 137.938 20.0386V26Z" fill="white"/>
</g>
<defs>
<clipPath id="clip0_41_290">
<rect width="153" height="38" fill="white" transform="translate(0.5)"/>
</clipPath>
</defs>
</svg>
