<svg width="98" height="50" viewBox="0 0 98 50" fill="none" xmlns="http://www.w3.org/2000/svg">
<path d="M25.0781 24.5764L25.2767 24.5344H41.7949L48.0018 30.7413H31.2432L25.0781 24.5764Z" fill="white"/>
<path d="M19.7607 24.5344L3.00195 24.5345L9.20883 30.7414H19.7605L19.7607 24.5344Z" fill="white"/>
<path d="M53.7695 6.70459H56.3436V14.7031H60.7647V16.87H53.7695V6.70459Z" fill="white"/>
<path d="M65.4397 17.0881C64.5768 17.0881 63.8209 16.933 63.1708 16.6227C62.5213 16.3028 62.0172 15.8666 61.6584 15.3139C61.3093 14.7516 61.1348 14.1069 61.1348 13.3797C61.1348 12.6526 61.3093 12.0127 61.6584 11.4601C62.0172 10.8978 62.5213 10.4615 63.1708 10.1513C63.8209 9.83132 64.5768 9.67139 65.4397 9.67139C66.3026 9.67139 67.0591 9.83132 67.7086 10.1513C68.358 10.4615 68.8573 10.8978 69.2063 11.4601C69.5651 12.0127 69.7445 12.6526 69.7445 13.3797C69.7445 14.1069 69.5651 14.7516 69.2063 15.3139C68.8573 15.8666 68.358 16.3028 67.7086 16.6227C67.0591 16.933 66.3026 17.0881 65.4397 17.0881ZM65.4397 15.0958C65.9535 15.0958 66.361 14.9455 66.6614 14.645C66.9715 14.3347 67.1266 13.913 67.1266 13.3797C67.1266 12.8465 66.9715 12.4296 66.6614 12.129C66.361 11.8188 65.9535 11.6637 65.4397 11.6637C64.9258 11.6637 64.5142 11.8188 64.2034 12.129C63.903 12.4296 63.7528 12.8465 63.7528 13.3797C63.7528 13.913 63.903 14.3347 64.2034 14.645C64.5142 14.9455 64.9258 15.0958 65.4397 15.0958Z" fill="white"/>
<path d="M74.5513 20.2148C74.0861 20.2148 73.616 20.1712 73.1404 20.0839C72.6752 19.9967 72.2733 19.8803 71.934 19.7349V17.9607C72.6996 18.2903 73.5722 18.4552 74.5513 18.4552C75.2591 18.4552 75.7681 18.3097 76.0782 18.0188C76.3981 17.728 76.558 17.3015 76.558 16.7391V16.3173C76.2771 16.5597 75.9281 16.7488 75.5115 16.8845C75.1041 17.0203 74.6674 17.0881 74.2022 17.0881C73.4658 17.0881 72.8157 16.933 72.2539 16.6227C71.6913 16.3126 71.2505 15.8762 70.9299 15.3139C70.6198 14.7516 70.4648 14.1069 70.4648 13.3797C70.4648 12.6429 70.6198 11.9933 70.9299 11.431C71.2408 10.8687 71.6767 10.4373 72.2393 10.1367C72.8011 9.82652 73.4464 9.67139 74.173 9.67139C75.1722 9.67139 75.9962 9.97679 76.6456 10.5875V9.88952H79.1176V16.3901C79.1176 17.602 78.7449 18.5424 77.9981 19.2114C77.261 19.8803 76.1123 20.2148 74.5513 20.2148ZM74.8419 15.1103C75.2397 15.1103 75.5936 15.0085 75.9037 14.8049C76.2138 14.6013 76.4322 14.3299 76.558 13.9905V12.769C76.4224 12.4296 76.1992 12.163 75.8891 11.9691C75.579 11.7655 75.2299 11.6637 74.8419 11.6637C74.319 11.6637 73.897 11.8188 73.5771 12.129C73.2572 12.4296 73.0973 12.8417 73.0973 13.3652C73.0973 13.8984 73.2572 14.325 73.5771 14.645C73.897 14.9552 74.319 15.1103 74.8419 15.1103Z" fill="white"/>
<path d="M84.0724 17.0881C83.2095 17.0881 82.453 16.933 81.8035 16.6227C81.1541 16.3028 80.65 15.8666 80.2912 15.3139C79.9421 14.7516 79.7676 14.1069 79.7676 13.3797C79.7676 12.6526 79.9421 12.0127 80.2912 11.4601C80.65 10.8978 81.1541 10.4615 81.8035 10.1513C82.453 9.83132 83.2095 9.67139 84.0724 9.67139C84.9353 9.67139 85.6912 9.83132 86.3413 10.1513C86.9908 10.4615 87.49 10.8978 87.8391 11.4601C88.1979 12.0127 88.3773 12.6526 88.3773 13.3797C88.3773 14.1069 88.1979 14.7516 87.8391 15.3139C87.49 15.8666 86.9908 16.3028 86.3413 16.6227C85.6912 16.933 84.9353 17.0881 84.0724 17.0881ZM84.0724 15.0958C84.5863 15.0958 84.9931 14.9455 85.2941 14.645C85.6043 14.3347 85.7593 13.913 85.7593 13.3797C85.7593 12.8465 85.6043 12.4296 85.2941 12.129C84.9931 11.8188 84.5863 11.6637 84.0724 11.6637C83.5586 11.6637 83.1462 11.8188 82.8361 12.129C82.5357 12.4296 82.3855 12.8465 82.3855 13.3797C82.3855 13.913 82.5357 14.3347 82.8361 14.645C83.1462 14.9455 83.5586 15.0958 84.0724 15.0958Z" fill="white"/>
<path d="M53.7695 20.6116H56.3436V30.777H53.7695V20.6116Z" fill="white"/>
<path d="M57.6465 23.7965H60.1185V24.4945C60.768 23.8838 61.5927 23.5784 62.5912 23.5784C63.3178 23.5784 63.9631 23.7335 64.5249 24.0438C65.0874 24.3443 65.5234 24.7757 65.8342 25.338C66.1444 25.8906 66.2994 26.5354 66.2994 27.2722C66.2994 27.9993 66.1444 28.6489 65.8342 29.2209C65.5234 29.7832 65.0874 30.2196 64.5249 30.5297C63.9728 30.84 63.3275 30.9951 62.5912 30.9951C62.1253 30.9951 61.6796 30.9224 61.2533 30.777C60.8361 30.6413 60.4871 30.4522 60.2062 30.2098V33.9619H57.6465V23.7965ZM61.9223 29.0028C62.4458 29.0028 62.8672 28.8477 63.1871 28.5374C63.5069 28.2272 63.6669 27.8054 63.6669 27.2722C63.6669 26.739 63.5069 26.3221 63.1871 26.0215C62.8672 25.7113 62.4458 25.5562 61.9223 25.5562C61.5343 25.5562 61.1852 25.658 60.8751 25.8616C60.5649 26.0554 60.3417 26.3221 60.2062 26.6614V27.8975C60.3417 28.2369 60.5649 28.5083 60.8751 28.7119C61.1852 28.9059 61.5343 29.0028 61.9223 29.0028Z" fill="white"/>
<path d="M70.116 30.9951C69.5534 30.9951 68.9666 30.9369 68.3561 30.8206C67.7456 30.714 67.2602 30.5589 66.9021 30.3553V28.4793C67.2991 28.7119 67.7741 28.9059 68.3269 29.061C68.8894 29.2064 69.4032 29.2791 69.8684 29.2791C70.2078 29.2791 70.4553 29.2548 70.6104 29.2064C70.7654 29.1579 70.8426 29.061 70.8426 28.9155C70.8426 28.7992 70.7898 28.7071 70.6827 28.6393C70.586 28.5617 70.4018 28.4841 70.1306 28.4065C69.8684 28.3193 69.5632 28.2272 69.2141 28.1302C68.6224 27.9557 68.1572 27.7763 67.8179 27.5921C67.4785 27.4079 67.2268 27.1753 67.062 26.8941C66.8972 26.613 66.8145 26.259 66.8145 25.8324C66.8145 25.0763 67.11 24.5139 67.7017 24.1456C68.3025 23.7674 69.1223 23.5784 70.1591 23.5784C70.6632 23.5784 71.1917 23.6317 71.7445 23.7383C72.307 23.845 72.7284 23.9856 73.01 24.1601V26.007C72.7186 25.8131 72.3313 25.6531 71.8467 25.5271C71.3711 25.4011 70.9253 25.338 70.5081 25.338C70.1786 25.338 69.922 25.3719 69.7377 25.4398C69.5534 25.498 69.4617 25.6047 69.4617 25.7598C69.4617 25.9052 69.5534 26.0167 69.7377 26.0942C69.922 26.1718 70.2516 26.2688 70.7265 26.3851C71.0366 26.4626 71.168 26.4966 71.1193 26.4869C71.7396 26.6517 72.2194 26.8359 72.5587 27.0395C72.898 27.2432 73.1358 27.4855 73.2714 27.7667C73.4168 28.0381 73.4898 28.3871 73.4898 28.8137C73.4898 29.4827 73.1991 30.016 72.6171 30.4134C72.0448 30.8012 71.2111 30.9951 70.116 30.9951Z" fill="white"/>
<path d="M77.311 30.995C76.3514 30.995 75.629 30.7284 75.1443 30.1952C74.6694 29.6619 74.4316 28.9591 74.4316 28.0865V23.7964H76.9912V27.7956C76.9912 28.6003 77.3548 29.0027 78.0815 29.0027C78.4117 29.0027 78.7121 28.9251 78.9833 28.77C79.2552 28.6149 79.4777 28.387 79.6522 28.0865V23.7964H82.2118V30.7769H79.7398V30.0206C79.4394 30.3406 79.0758 30.583 78.6488 30.7478C78.2226 30.9126 77.7762 30.995 77.311 30.995Z" fill="white"/>
<path d="M83.5234 23.7965H85.8938V24.5527C86.1844 24.2425 86.5189 24.005 86.8972 23.8401C87.2754 23.6656 87.678 23.5784 88.1043 23.5784C88.6278 23.5784 89.0451 23.6559 89.3552 23.811C89.675 23.9662 89.9316 24.1988 90.1256 24.5091C90.4163 24.2182 90.7702 23.9904 91.1874 23.8256C91.6039 23.6608 92.026 23.5784 92.4522 23.5784C93.3736 23.5784 94.0279 23.8159 94.4159 24.2909C94.8039 24.7563 94.9979 25.4301 94.9979 26.3124V30.777H92.5544V26.676C92.5544 26.2882 92.4814 26.007 92.3361 25.8324C92.1908 25.658 91.9481 25.5707 91.6088 25.5707C91.1728 25.5707 90.8189 25.7259 90.5477 26.036C90.5574 26.2009 90.5623 26.453 90.5623 26.7923V30.777H88.1189V26.5742C88.1189 26.2154 88.0556 25.9585 87.9297 25.8034C87.8039 25.6483 87.5807 25.5707 87.2608 25.5707C86.7664 25.5707 86.3395 25.847 85.9814 26.3996V30.777H83.5234V23.7965Z" fill="white"/>
<path d="M25.2765 24.5345L25.0778 24.5766L31.2426 30.7414V47.5H25.9667L19.7598 41.2931H25.0357V24.5344H19.7598V19.2587H25.0357V2.5L31.2426 8.70689V19.2586L25.0357 19.2587V24.5344L25.2765 24.5345Z" fill="white"/>
<path d="M41.7949 24.5344L48.0018 30.7413V25.4654L41.7949 19.2585V24.5344Z" fill="white"/>
<path d="M54.1348 35.5486H57.9013C58.9676 35.5486 59.7964 35.8007 60.3882 36.3049C60.9889 36.809 61.29 37.5555 61.29 38.5444C61.29 39.543 60.9938 40.2896 60.4028 40.7841C59.811 41.2785 58.9773 41.5257 57.9013 41.5257H55.2691V45.714H54.1348V35.5486ZM57.8141 40.5659C58.5413 40.5659 59.1136 40.4205 59.5301 40.1296C59.9473 39.8291 60.1552 39.3007 60.1552 38.5444C60.1552 37.7785 59.9473 37.2501 59.5301 36.9593C59.1136 36.6587 58.5413 36.5085 57.8141 36.5085H55.2691V40.5659H57.8141Z" fill="white"/>
<path d="M62.7402 34.9668H63.8597V45.7139H62.7402V34.9668Z" fill="white"/>
<path d="M68.7143 45.9321C67.7833 45.9321 67.0657 45.68 66.5615 45.1758C66.0671 44.6717 65.8203 43.9979 65.8203 43.1544V38.7334H66.9398V43.2126C66.9398 44.4342 67.5746 45.045 68.845 45.045C69.3784 45.045 69.8435 44.9286 70.2413 44.696C70.6481 44.4632 71.0117 44.0948 71.3316 43.5907V38.7334H72.4518V45.7139H71.3608V44.6668C70.7308 45.5103 69.8484 45.9321 68.7143 45.9321Z" fill="white"/>
<path d="M76.9147 45.9322C76.4586 45.9322 75.9691 45.8643 75.4455 45.7286C74.9219 45.6025 74.5151 45.4426 74.2238 45.2486V44.3034C74.5923 44.5264 75.0144 44.7057 75.4893 44.8414C75.9739 44.9772 76.4391 45.045 76.8855 45.045C77.4863 45.045 77.9181 44.9626 78.1796 44.7978C78.4514 44.6233 78.587 44.3664 78.587 44.0271C78.587 43.7653 78.5286 43.5617 78.4125 43.4163C78.2957 43.2611 78.1024 43.1254 77.8305 43.0091C77.5593 42.8927 77.1373 42.757 76.5657 42.6019C76.0032 42.4468 75.5526 42.2868 75.2132 42.122C74.8837 41.9474 74.6312 41.7293 74.4567 41.4675C74.2822 41.2058 74.1953 40.8713 74.1953 40.4641C74.1953 39.8339 74.447 39.354 74.9511 39.0244C75.465 38.685 76.1436 38.5154 76.9871 38.5154C77.4425 38.5154 77.8694 38.559 78.2672 38.6462C78.674 38.7238 79.0133 38.8353 79.2852 38.9808V39.926C79.0035 39.7709 78.6642 39.6497 78.2672 39.5624C77.8694 39.4655 77.4571 39.417 77.0309 39.417C76.4683 39.417 76.0421 39.4994 75.7507 39.6642C75.4601 39.8291 75.3148 40.0957 75.3148 40.4641C75.3148 40.7162 75.3634 40.9101 75.4601 41.0458C75.5672 41.1815 75.7556 41.3076 76.0275 41.4239C76.3084 41.5306 76.7548 41.6663 77.3653 41.8311C78.238 42.0735 78.8436 42.3595 79.1829 42.6892C79.532 43.0091 79.7065 43.4551 79.7065 44.0271C79.7065 44.6184 79.4743 45.0838 79.0084 45.4232C78.553 45.7625 77.8548 45.9322 76.9147 45.9322Z" fill="white"/>
</svg>
