<svg width="51" height="51" viewBox="0 0 51 51" fill="none" xmlns="http://www.w3.org/2000/svg">
<path fill-rule="evenodd" clip-rule="evenodd" d="M21.7636 9.87548C16.1545 9.87548 11.6074 14.4226 11.6074 20.0317C11.6074 25.6409 16.1545 30.1879 21.7636 30.1879C27.3728 30.1879 31.9198 25.6409 31.9198 20.0317C31.9198 14.4226 27.3728 9.87548 21.7636 9.87548ZM8.48242 20.0317C8.48242 12.6967 14.4286 6.75049 21.7636 6.75049C29.0986 6.75049 35.0448 12.6967 35.0448 20.0317C35.0448 27.3667 29.0986 33.3129 21.7636 33.3129C14.4286 33.3129 8.48242 27.3667 8.48242 20.0317Z" fill="#6F00EB"/>
<path fill-rule="evenodd" clip-rule="evenodd" d="M21.7617 33.3105C18.7954 33.3105 15.8652 33.9602 13.1769 35.2138C10.4886 36.4676 8.10748 38.2947 6.20093 40.5671C5.64626 41.2282 4.66071 41.3144 3.99964 40.7597C3.33856 40.205 3.2523 39.2196 3.80695 38.5585C6.00685 35.9366 8.75428 33.8282 11.8562 32.3818C14.958 30.9352 18.3392 30.1855 21.7617 30.1855C25.1843 30.1855 28.5654 30.9352 31.6672 32.3818C34.7691 33.8282 37.5166 35.9366 39.7164 38.5585C40.2711 39.2196 40.1849 40.205 39.5238 40.7597C38.8627 41.3144 37.8771 41.2282 37.3225 40.5671C35.4158 38.2947 33.0347 36.4676 30.3465 35.2138C27.6582 33.9602 24.7279 33.3105 21.7617 33.3105Z" fill="#6F00EB"/>
<path fill-rule="evenodd" clip-rule="evenodd" d="M43.6367 25.5005C42.7737 25.5005 42.0742 26.2 42.0742 27.063C42.0742 27.9259 42.7737 28.6255 43.6367 28.6255C44.4997 28.6255 45.1992 27.9259 45.1992 27.063C45.1992 26.2 44.4997 25.5005 43.6367 25.5005ZM38.9492 27.063C38.9492 24.4741 41.0478 22.3755 43.6367 22.3755C46.2256 22.3755 48.3242 24.4741 48.3242 27.063C48.3242 29.6519 46.2256 31.7505 43.6367 31.7505C41.0478 31.7505 38.9492 29.6519 38.9492 27.063Z" fill="#6F00EB"/>
<path fill-rule="evenodd" clip-rule="evenodd" d="M43.6367 20.0317C44.4997 20.0317 45.1992 20.7313 45.1992 21.5942V23.938C45.1992 24.8009 44.4997 25.5005 43.6367 25.5005C42.7737 25.5005 42.0742 24.8009 42.0742 23.938V21.5942C42.0742 20.7313 42.7737 20.0317 43.6367 20.0317Z" fill="#6F00EB"/>
<path fill-rule="evenodd" clip-rule="evenodd" d="M37.5603 23.5425C37.9947 22.7968 38.9512 22.5443 39.697 22.9787L41.7087 24.1506C42.4543 24.585 42.7067 25.5415 42.2723 26.2873C41.8379 27.0329 40.8814 27.2853 40.1357 26.8509L38.124 25.679C37.3783 25.2446 37.1259 24.2881 37.5603 23.5425Z" fill="#6F00EB"/>
<path fill-rule="evenodd" clip-rule="evenodd" d="M42.2723 27.8393C42.7067 28.585 42.4543 29.5415 41.7087 29.9759L39.697 31.1478C38.9512 31.5821 37.9947 31.3298 37.5603 30.5842C37.1259 29.8384 37.3783 28.8818 38.124 28.4475L40.1357 27.2756C40.8814 26.8412 41.8379 27.0937 42.2723 27.8393Z" fill="#6F00EB"/>
<path fill-rule="evenodd" clip-rule="evenodd" d="M43.6367 28.625C44.4997 28.625 45.1992 29.3245 45.1992 30.1875V32.5312C45.1992 33.3942 44.4997 34.0937 43.6367 34.0937C42.7737 34.0937 42.0742 33.3942 42.0742 32.5312V30.1875C42.0742 29.3245 42.7737 28.625 43.6367 28.625Z" fill="#6F00EB"/>
<path fill-rule="evenodd" clip-rule="evenodd" d="M44.9997 27.8393C45.4341 27.0937 46.3907 26.8412 47.1363 27.2756L49.148 28.4475C49.8936 28.8818 50.146 29.8384 49.7118 30.5842C49.2774 31.3298 48.3207 31.5821 47.5751 31.1478L45.5633 29.9759C44.8177 29.5415 44.5654 28.585 44.9997 27.8393Z" fill="#6F00EB"/>
<path fill-rule="evenodd" clip-rule="evenodd" d="M49.7118 23.5425C50.146 24.2881 49.8936 25.2446 49.148 25.679L47.1363 26.8509C46.3907 27.2853 45.4341 27.0329 44.9997 26.2873C44.5654 25.5415 44.8177 24.585 45.5633 24.1506L47.5751 22.9787C48.3207 22.5443 49.2774 22.7968 49.7118 23.5425Z" fill="#6F00EB"/>
</svg>
