<svg width="51" height="51" viewBox="0 0 51 51" fill="none" xmlns="http://www.w3.org/2000/svg">
<path d="M17.3346 27.583V35.9163H13.168V40.083H19.418V44.2496H23.5846V40.083H27.7513V44.2496H31.918V39.9767C36.018 39.458 39.2096 35.9872 39.2096 31.7497C39.2096 28.9997 37.8555 26.5747 35.793 25.0559C37.314 23.5059 38.1667 21.4214 38.168 19.2497C38.168 15.3789 35.5034 12.1435 31.918 11.2122V6.74976H27.7513V10.9164H23.5846V6.74976H19.418V10.9164H13.168V15.0831H17.3346V27.583ZM30.8763 35.9163H21.5013V27.583H30.8763C33.1742 27.583 35.043 29.4518 35.043 31.7497C35.043 34.0476 33.1742 35.9163 30.8763 35.9163ZM21.5013 15.0831H29.8346C32.1326 15.0831 34.0013 16.9518 34.0013 19.2497C34.0013 21.5476 32.1326 23.4164 29.8346 23.4164H21.5013V15.0831Z" fill="white"/>
</svg>
