<svg width="51" height="50" viewBox="0 0 51 50" fill="none" xmlns="http://www.w3.org/2000/svg">
<g clip-path="url(#clip0_249_3317)">
<path d="M40.9317 43.3604H42.5152C46.8232 43.3604 50.3278 39.8556 50.3278 35.5476C50.3278 34.4689 49.4534 33.5944 48.3747 33.5944C47.2959 33.5944 46.4215 34.4689 46.4215 35.5476C46.4215 37.7016 44.6691 39.454 42.5152 39.454H37.0254L40.9317 43.3604Z" fill="#6F00EB"/>
<path d="M31.0855 39.454H8.14269C5.98533 39.454 4.23638 37.7051 4.23638 35.5476V20.8987H8.63615C10.3762 20.8987 11.2476 18.8067 10.0172 17.5762C9.65091 17.21 9.15412 17.0042 8.63615 17.0042H4.23638V14.4532C4.23638 14.1538 4.27037 13.8623 4.33463 13.5821C4.48512 12.9259 4.28902 12.2387 3.81304 11.7626C2.7307 10.6802 0.873736 11.2049 0.529396 12.6964C0.399023 13.2612 0.330078 13.8493 0.330078 14.4532V35.5476C0.330078 39.8625 3.82788 43.3604 8.14269 43.3604H31.0855C32.8255 43.3604 33.6969 41.2565 32.4666 40.026C32.1002 39.6597 31.6035 39.454 31.0855 39.454Z" fill="#6F00EB"/>
<path d="M19.5176 18.957H46.7152" stroke="#6F00EB" stroke-width="2.79024" stroke-miterlimit="10" stroke-linecap="round"/>
<path d="M9.2168 8.5935H42.518C45.7541 8.5935 48.3775 11.2169 48.3775 14.4531V25.7935" stroke="#6F00EB" stroke-width="2.79024" stroke-miterlimit="10" stroke-linecap="round"/>
<path d="M2.2832 1.96291L9.45586 9.13569L48.3776 48.0581" stroke="#6F00EB" stroke-width="2.79024" stroke-miterlimit="10" stroke-linecap="round"/>
</g>
<defs>
<clipPath id="clip0_249_3317">
<rect width="50.0007" height="50.0016" fill="white" transform="translate(0.332031 -0.000976562)"/>
</clipPath>
</defs>
</svg>
