<svg width="50" height="50" viewBox="0 0 50 50" fill="none" xmlns="http://www.w3.org/2000/svg">
<path fill-rule="evenodd" clip-rule="evenodd" d="M24.9961 7.81208C18.9555 7.81208 14.0586 12.7091 14.0586 18.7498C14.0586 24.7906 18.9555 29.6876 24.9961 29.6876C31.0367 29.6876 35.9336 24.7906 35.9336 18.7498C35.9336 12.7091 31.0367 7.81208 24.9961 7.81208ZM10.9336 18.7498C10.9336 10.9832 17.2295 4.68701 24.9961 4.68701C32.7627 4.68701 39.0586 10.9832 39.0586 18.7498C39.0586 26.5166 32.7627 32.8126 24.9961 32.8126C17.2295 32.8126 10.9336 26.5166 10.9336 18.7498Z" fill="#6F00EB"/>
<path fill-rule="evenodd" clip-rule="evenodd" d="M24.9983 32.8104C21.4323 32.8104 17.9294 33.7491 14.8412 35.5322C11.7532 37.3153 9.1889 39.8801 7.40623 42.9684C6.97484 43.7158 6.01925 43.972 5.27187 43.5406C4.5245 43.1092 4.26835 42.1536 4.69976 41.4062C6.75668 37.8427 9.71545 34.8834 13.2786 32.8258C16.8419 30.7685 20.8837 29.6853 24.9983 29.6853C29.1128 29.6853 33.1548 30.7685 36.718 32.8258C40.2812 34.8834 43.24 37.8427 45.2969 41.4062C45.7283 42.1536 45.4722 43.1092 44.7247 43.5406C43.9773 43.972 43.0219 43.7158 42.5905 42.9684C40.8077 39.8801 38.2434 37.3153 35.1553 35.5322C32.0673 33.7491 28.5642 32.8104 24.9983 32.8104Z" fill="#6F00EB"/>
</svg>
