<svg width="52" height="52" viewBox="0 0 52 52" fill="none" xmlns="http://www.w3.org/2000/svg">
<g clip-path="url(#clip0_1157_40)">
<path d="M48.5069 0.5H3.49306C1.84263 0.5 0.5 1.84154 0.5 3.49047V38.4623C0.5 40.1113 1.84263 41.4528 3.49306 41.4528H13.2958V41.9477C13.2958 47.2148 17.581 51.4999 22.8482 51.4999H22.8996C28.1667 51.4999 32.4518 47.2147 32.4518 41.9477V41.4528H48.5069C50.1573 41.4528 51.5 40.1113 51.5 38.4623V3.49047C51.5 1.84154 50.1573 0.5 48.5069 0.5ZM3.49207 10.8118H48.5107L48.5103 13.7304H3.49167L3.49207 10.8118ZM48.5117 3.49047L48.5111 7.82348H3.49246L3.49306 3.48828L48.5117 3.49047ZM29.4635 41.9478C29.4635 45.5672 26.519 48.5117 22.8996 48.5117H22.8482C19.2288 48.5117 16.2841 45.5672 16.2841 41.9478V35.3603H29.4635V41.9478ZM32.4518 38.4645V33.8662C32.4518 33.041 31.7828 32.372 30.9577 32.372H29.6154V31.1048C29.6154 29.4273 30.9838 28.0625 32.6657 28.0625C34.3475 28.0625 35.7158 29.4273 35.7158 31.1048V32.6486C35.7158 33.4738 36.3848 34.1428 37.2099 34.1428C38.0351 34.1428 38.7041 33.4738 38.7041 32.6486V31.1048C38.7041 27.7795 35.9952 25.0742 32.6656 25.0742C29.3359 25.0742 26.6271 27.7795 26.6271 31.1048V32.372H14.79C13.9648 32.372 13.2958 33.041 13.2958 33.8662V38.4642L3.48828 38.4623L3.49127 16.7187H48.5099L48.5069 38.4645H32.4518Z" fill="white"/>
<path d="M22.873 43.585C23.6982 43.585 24.3672 42.916 24.3672 42.0909V40.7832C24.3672 39.958 23.6982 39.2891 22.873 39.2891C22.0479 39.2891 21.3789 39.958 21.3789 40.7832V42.0909C21.3789 42.916 22.0478 43.585 22.873 43.585Z" fill="white"/>
</g>
<defs>
<clipPath id="clip0_1157_40">
<rect width="51" height="51" fill="white" transform="translate(0.5 0.5)"/>
</clipPath>
</defs>
</svg>
