<svg width="51" height="51" viewBox="0 0 51 51" fill="none" xmlns="http://www.w3.org/2000/svg">
<g clip-path="url(#clip0_246_3011)">
<path fill-rule="evenodd" clip-rule="evenodd" d="M37.834 27.0623C37.834 26.1993 38.5335 25.4998 39.3965 25.4998H48.7715C49.6345 25.4998 50.334 26.1993 50.334 27.0623C50.334 27.9252 49.6345 28.6248 48.7715 28.6248H39.3965C38.5335 28.6248 37.834 27.9252 37.834 27.0623Z" fill="white"/>
<path fill-rule="evenodd" clip-rule="evenodd" d="M44.0859 20.812C44.9489 20.812 45.6484 21.5115 45.6484 22.3745V31.7495C45.6484 32.6125 44.9489 33.312 44.0859 33.312C43.223 33.312 42.5234 32.6125 42.5234 31.7495V22.3745C42.5234 21.5115 43.223 20.812 44.0859 20.812Z" fill="white"/>
<path fill-rule="evenodd" clip-rule="evenodd" d="M21.4316 9.87476C15.8225 9.87476 11.2754 14.4219 11.2754 20.031C11.2754 25.6402 15.8225 30.1873 21.4316 30.1873C27.0409 30.1873 31.5879 25.6402 31.5879 20.031C31.5879 14.4219 27.0409 9.87476 21.4316 9.87476ZM8.15039 20.031C8.15039 12.696 14.0966 6.74976 21.4316 6.74976C28.7666 6.74976 34.7129 12.696 34.7129 20.031C34.7129 27.366 28.7666 33.3123 21.4316 33.3123C14.0966 33.3123 8.15039 27.366 8.15039 20.031Z" fill="white"/>
<path fill-rule="evenodd" clip-rule="evenodd" d="M21.4297 33.3101C18.4634 33.3101 15.5332 33.9597 12.8449 35.2133C10.1566 36.4671 7.77547 38.2943 5.8689 40.5666C5.31423 41.2277 4.32869 41.314 3.66761 40.7593C3.00653 40.2046 2.92026 39.2191 3.47492 38.558C5.67483 35.9362 8.42226 33.8277 11.5242 32.3813C14.6261 30.9347 18.0072 30.1851 21.4297 30.1851C24.8523 30.1851 28.2334 30.9347 31.3353 32.3813C34.4372 33.8277 37.1847 35.9362 39.3845 38.558C39.9392 39.2191 39.853 40.2046 39.1919 40.7593C38.5308 41.314 37.5452 41.2277 36.9906 40.5666C35.0839 38.2943 32.7028 36.4671 30.0145 35.2133C27.3262 33.9597 24.3959 33.3101 21.4297 33.3101Z" fill="white"/>
</g>
<defs>
<clipPath id="clip0_246_3011">
<rect width="50" height="50" fill="white" transform="translate(0.333984 0.5)"/>
</clipPath>
</defs>
</svg>
