<svg width="312" height="71" viewBox="0 0 312 71" fill="none" xmlns="http://www.w3.org/2000/svg">
<mask id="mask0_410_37" style="mask-type:luminance" maskUnits="userSpaceOnUse" x="0" y="3" width="64" height="65">
<path d="M63.5557 3.72168H0V67.2773H63.5557V3.72168Z" fill="white"/>
</mask>
<g mask="url(#mask0_410_37)">
<path d="M10.5924 24.9071C4.74465 24.9071 0 20.1643 0 14.3141C0 8.46391 4.74465 3.72168 10.5924 3.72168C16.442 3.72168 21.1848 8.46451 21.1848 14.3141C21.1848 20.1636 25.9283 24.9071 31.778 24.9071C37.6275 24.9071 42.3703 20.1643 42.3703 14.3146C42.3703 8.46513 47.1138 3.72168 52.9633 3.72168C58.813 3.72168 63.5558 8.46451 63.5558 14.3141C63.5558 20.1636 58.813 24.9065 52.9633 24.9065C35.411 24.9065 21.1855 39.1382 21.1855 56.6838C21.1855 62.5305 16.4426 67.2763 10.5931 67.2763C4.74345 67.2763 0 62.5347 0 56.6852C0 50.8355 4.74283 46.092 10.5924 46.092C16.442 46.092 21.1837 41.3491 21.1837 35.4996C21.1837 29.65 16.4426 24.9071 10.5924 24.9071Z" fill="white"/>
<path d="M29.1289 50.0636C29.1289 40.5518 36.8339 32.8506 46.3426 32.8506C55.8512 32.8511 63.5549 40.5518 63.5549 50.0636C63.5549 59.5711 55.8512 67.2771 46.3414 67.2771C36.8326 67.2771 29.1289 59.5711 29.1289 50.0636Z" fill="white"/>
</g>
<path d="M118.2 43.6297C118.2 37.2696 114.12 33.7897 106.56 32.2896L99.18 30.7896C96.06 30.1896 93.36 28.9297 93.36 25.9897C93.36 22.9897 95.88 20.4697 100.32 20.4697C104.88 20.4697 108 23.5297 108.3 28.0297H117.54C116.94 19.0297 109.86 13.3896 100.2 13.3896C90.9 13.3896 84.12 18.9096 84.12 26.5896C84.12 33.7297 89.16 37.2696 95.7 38.5296L102.78 39.9096C106.44 40.6297 108.54 42.2496 108.54 44.9496C108.54 48.4296 105.24 50.4697 100.62 50.4697C95.04 50.4697 91.98 47.4097 91.74 42.6697H82.5C83.16 51.7897 89.94 57.6096 100.8 57.6096C111.6 57.6096 118.2 51.8497 118.2 43.6297Z" fill="white"/>
<path d="M143.285 57.0097H150.065V36.8497C150.065 28.9897 145.145 24.3696 136.745 24.3696C129.005 24.3696 123.665 29.1696 123.185 36.5496H130.685C130.985 32.9496 133.145 30.8497 136.745 30.8497C140.225 30.8497 142.265 32.9496 142.265 36.5496V38.4697C140.285 38.2296 138.725 38.1096 136.925 38.1096C127.565 38.1096 122.525 41.4697 122.525 47.7097C122.525 53.7097 126.965 57.6096 133.625 57.6096C138.005 57.6096 141.185 56.0497 143.285 53.0497V57.0097ZM130.385 47.4697C130.385 44.5896 132.725 43.0896 137.465 43.0896C138.905 43.0896 140.285 43.2097 142.265 43.5097V45.7896C142.265 49.5097 139.685 51.8497 135.425 51.8497C132.305 51.8497 130.385 50.1697 130.385 47.4697Z" fill="white"/>
<path d="M184.312 46.7496C184.312 42.1296 181.132 39.2497 174.892 38.0497L168.712 36.9096C165.832 36.3696 164.512 35.5897 164.512 33.6697C164.512 31.6297 166.552 30.4897 169.612 30.4897C173.152 30.4897 175.492 32.4097 175.792 35.5297H183.772C183.172 28.6297 177.652 24.3696 169.612 24.3696C161.632 24.3696 156.532 28.5096 156.532 34.4496C156.532 39.4297 160.012 42.6096 165.772 43.6297L171.532 44.7097C174.592 45.3097 175.912 46.1497 175.912 48.1897C175.912 50.4697 173.452 51.4897 170.212 51.4897C166.072 51.4897 163.252 49.3896 163.192 46.0896H155.212C155.872 53.2297 160.972 57.6096 170.092 57.6096C179.212 57.6096 184.312 53.4696 184.312 46.7496Z" fill="white"/>
<path d="M203.506 57.6096C212.086 57.6096 218.086 52.1497 219.046 43.3297H210.286C209.806 47.7097 207.346 50.2297 203.506 50.2297C199.126 50.2297 196.426 46.7497 196.426 40.9897C196.426 35.2897 199.186 31.7496 203.506 31.7496C207.286 31.7496 209.866 34.3897 210.286 38.6497H219.046C218.026 30.0097 211.846 24.3696 203.506 24.3696C194.506 24.3696 187.906 31.3897 187.906 40.9897C187.906 50.7697 194.266 57.6096 203.506 57.6096Z" fill="white"/>
<path d="M243.48 57.0097H250.26V36.8497C250.26 28.9897 245.34 24.3696 236.94 24.3696C229.2 24.3696 223.86 29.1696 223.38 36.5496H230.88C231.18 32.9496 233.34 30.8497 236.94 30.8497C240.42 30.8497 242.46 32.9496 242.46 36.5496V38.4697C240.48 38.2296 238.92 38.1096 237.12 38.1096C227.76 38.1096 222.72 41.4697 222.72 47.7097C222.72 53.7097 227.16 57.6096 233.82 57.6096C238.2 57.6096 241.38 56.0497 243.48 53.0497V57.0097ZM230.58 47.4697C230.58 44.5896 232.92 43.0896 237.66 43.0896C239.1 43.0896 240.48 43.2097 242.46 43.5097V45.7896C242.46 49.5097 239.88 51.8497 235.62 51.8497C232.5 51.8497 230.58 50.1697 230.58 47.4697Z" fill="white"/>
<path d="M265.787 41.4697C265.787 34.3897 270.527 32.7096 277.607 33.2496V24.6096C272.447 24.6096 267.467 27.0697 265.127 31.1497V24.9696H257.447V57.0097H265.787V41.4697Z" fill="white"/>
<path d="M279.605 40.9897C279.605 50.3497 285.185 57.6096 293.825 57.6096C297.965 57.6096 301.445 55.7497 303.965 52.3897V57.0097H311.585V13.9296H303.305V29.1096C300.905 26.0496 297.665 24.3696 293.825 24.3696C285.185 24.3696 279.605 31.5097 279.605 40.9897ZM288.185 40.9897C288.185 34.8697 291.605 31.7496 295.685 31.7496C299.765 31.7496 303.245 34.8096 303.245 40.8696C303.245 46.9296 299.825 50.1697 295.685 50.1697C291.605 50.1697 288.185 46.9897 288.185 40.9897Z" fill="white"/>
</svg>
