<svg width="190" height="39" viewBox="0 0 190 39" fill="none" xmlns="http://www.w3.org/2000/svg">
<path d="M6.35546 12.7113C2.84679 12.7113 0 9.86559 0 6.35546C0 2.84534 2.84679 0 6.35546 0C9.86522 0 12.7109 2.8457 12.7109 6.35546C12.7109 9.86522 15.557 12.7113 19.0668 12.7113C22.5765 12.7113 25.4222 9.86559 25.4222 6.35583C25.4222 2.84607 28.2683 0 31.778 0C35.2878 0 38.1335 2.8457 38.1335 6.35546C38.1335 9.86522 35.2878 12.7109 31.778 12.7109C21.2466 12.7109 12.7113 21.2499 12.7113 31.7773C12.7113 35.2853 9.86559 38.1328 6.35583 38.1328C2.84607 38.1328 0 35.2878 0 31.778C0 28.2683 2.8457 25.4222 6.35546 25.4222C9.86522 25.4222 12.7102 22.5765 12.7102 19.0668C12.7102 15.557 9.86559 12.7113 6.35546 12.7113Z" fill="#6F00EB"/>
<path d="M17.4778 27.8053C17.4778 22.0983 22.1007 17.4775 27.806 17.4775C33.5112 17.4779 38.1334 22.0983 38.1334 27.8053C38.1334 33.5098 33.5112 38.1335 27.8052 38.1335C22.1 38.1335 17.4778 33.5098 17.4778 27.8053Z" fill="#6F00EB"/>
<path d="M73.6334 24.5387C73.6334 20.7227 71.1854 18.6347 66.6494 17.7347L62.2214 16.8347C60.3494 16.4747 58.7294 15.7187 58.7294 13.9547C58.7294 12.1547 60.2414 10.6427 62.9054 10.6427C65.6414 10.6427 67.5134 12.4787 67.6934 15.1787H73.2374C72.8774 9.77868 68.6294 6.39468 62.8334 6.39468C57.2534 6.39468 53.1854 9.70668 53.1854 14.3147C53.1854 18.5987 56.2094 20.7227 60.1334 21.4787L64.3814 22.3067C66.5774 22.7387 67.8374 23.7107 67.8374 25.3307C67.8374 27.4187 65.8574 28.6427 63.0854 28.6427C59.7374 28.6427 57.9014 26.8067 57.7574 23.9627H52.2134C52.6094 29.4347 56.6774 32.9267 63.1934 32.9267C69.6734 32.9267 73.6334 29.4707 73.6334 24.5387Z" fill="#110D34"/>
<path d="M88.6845 32.5667H92.7525V20.4707C92.7525 15.7547 89.8005 12.9827 84.7605 12.9827C80.1165 12.9827 76.9125 15.8627 76.6245 20.2907H81.1245C81.3045 18.1307 82.6005 16.8707 84.7605 16.8707C86.8485 16.8707 88.0725 18.1307 88.0725 20.2907V21.4427C86.8845 21.2987 85.9485 21.2267 84.8685 21.2267C79.2525 21.2267 76.2285 23.2427 76.2285 26.9867C76.2285 30.5867 78.8925 32.9267 82.8885 32.9267C85.5165 32.9267 87.4245 31.9907 88.6845 30.1907V32.5667ZM80.9445 26.8427C80.9445 25.1147 82.3485 24.2147 85.1925 24.2147C86.0565 24.2147 86.8845 24.2867 88.0725 24.4667V25.8347C88.0725 28.0667 86.5245 29.4707 83.9685 29.4707C82.0965 29.4707 80.9445 28.4627 80.9445 26.8427Z" fill="#110D34"/>
<path d="M113.301 26.4107C113.301 23.6387 111.393 21.9107 107.649 21.1907L103.941 20.5067C102.213 20.1827 101.421 19.7147 101.421 18.5627C101.421 17.3387 102.645 16.6547 104.481 16.6547C106.605 16.6547 108.009 17.8067 108.189 19.6787H112.977C112.617 15.5387 109.305 12.9827 104.481 12.9827C99.6926 12.9827 96.6326 15.4667 96.6326 19.0307C96.6326 22.0187 98.7206 23.9267 102.177 24.5387L105.633 25.1867C107.469 25.5467 108.261 26.0507 108.261 27.2747C108.261 28.6427 106.785 29.2547 104.841 29.2547C102.357 29.2547 100.665 27.9947 100.629 26.0147H95.8406C96.2366 30.2987 99.2966 32.9267 104.769 32.9267C110.241 32.9267 113.301 30.4427 113.301 26.4107Z" fill="#110D34"/>
<path d="M124.817 32.9267C129.965 32.9267 133.565 29.6507 134.141 24.3587H128.885C128.597 26.9867 127.121 28.4987 124.817 28.4987C122.189 28.4987 120.569 26.4107 120.569 22.9547C120.569 19.5347 122.225 17.4107 124.817 17.4107C127.085 17.4107 128.633 18.9947 128.885 21.5507H134.141C133.529 16.3667 129.821 12.9827 124.817 12.9827C119.417 12.9827 115.457 17.1947 115.457 22.9547C115.457 28.8227 119.273 32.9267 124.817 32.9267Z" fill="#110D34"/>
<path d="M148.802 32.5667H152.87V20.4707C152.87 15.7547 149.918 12.9827 144.878 12.9827C140.234 12.9827 137.03 15.8627 136.742 20.2907H141.242C141.422 18.1307 142.718 16.8707 144.878 16.8707C146.966 16.8707 148.19 18.1307 148.19 20.2907V21.4427C147.002 21.2987 146.066 21.2267 144.986 21.2267C139.37 21.2267 136.346 23.2427 136.346 26.9867C136.346 30.5867 139.01 32.9267 143.006 32.9267C145.634 32.9267 147.542 31.9907 148.802 30.1907V32.5667ZM141.062 26.8427C141.062 25.1147 142.466 24.2147 145.31 24.2147C146.174 24.2147 147.002 24.2867 148.19 24.4667V25.8347C148.19 28.0667 146.642 29.4707 144.086 29.4707C142.214 29.4707 141.062 28.4627 141.062 26.8427Z" fill="#110D34"/>
<path d="M162.186 23.2427C162.186 18.9947 165.03 17.9867 169.278 18.3107V13.1267C166.182 13.1267 163.194 14.6027 161.79 17.0507V13.3427H157.182V32.5667H162.186V23.2427Z" fill="#110D34"/>
<path d="M170.476 22.9547C170.476 28.5707 173.824 32.9267 179.008 32.9267C181.492 32.9267 183.58 31.8107 185.092 29.7947V32.5667H189.664V6.71868H184.696V15.8267C183.256 13.9907 181.312 12.9827 179.008 12.9827C173.824 12.9827 170.476 17.2667 170.476 22.9547ZM175.624 22.9547C175.624 19.2827 177.676 17.4107 180.124 17.4107C182.572 17.4107 184.66 19.2467 184.66 22.8827C184.66 26.5187 182.608 28.4627 180.124 28.4627C177.676 28.4627 175.624 26.5547 175.624 22.9547Z" fill="#110D34"/>
</svg>
