<svg width="25" height="25" viewBox="0 0 25 25" fill="none" xmlns="http://www.w3.org/2000/svg">
<path d="M13.6351 1.62424L15.4482 3.16934C15.8886 3.54469 16.4362 3.77153 17.0131 3.81756L19.3877 4.00705C20.2443 4.07541 20.9246 4.75566 20.9929 5.6123L21.1824 7.98689C21.2285 8.56375 21.4553 9.11138 21.8307 9.55183L23.3758 11.3649C23.9332 12.019 23.9332 12.981 23.3758 13.6351L21.8307 15.4482C21.4553 15.8886 21.2285 16.4362 21.1824 17.0131L20.9929 19.3877C20.9246 20.2443 20.2443 20.9246 19.3877 20.9929L17.0131 21.1824C16.4362 21.2285 15.8886 21.4553 15.4482 21.8307L13.6351 23.3758C12.981 23.9332 12.019 23.9332 11.3649 23.3758L9.55183 21.8307C9.11138 21.4553 8.56375 21.2285 7.98689 21.1824L5.6123 20.9929C4.75566 20.9246 4.07541 20.2443 4.00705 19.3877L3.81756 17.0131C3.77153 16.4362 3.54469 15.8886 3.16934 15.4482L1.62424 13.6351C1.06684 12.981 1.06684 12.019 1.62424 11.3649L3.16934 9.55183C3.54469 9.11138 3.77153 8.56375 3.81756 7.98689L4.00705 5.6123C4.07541 4.75566 4.75566 4.07541 5.6123 4.00705L7.98689 3.81756C8.56375 3.77153 9.11138 3.54469 9.55184 3.16934L11.3649 1.62424C12.019 1.06684 12.981 1.06684 13.6351 1.62424Z" stroke="#6F00EB"/>
<g clip-path="url(#clip0_501_256)">
<path d="M18.1747 8.26413C17.9632 8.05258 17.6202 8.05258 17.4087 8.26413L10.9192 14.7537L8.42469 12.2592C8.21317 12.0477 7.87023 12.0477 7.65866 12.2592C7.44711 12.4708 7.44711 12.8137 7.65866 13.0253L10.5361 15.9027C10.7476 16.1142 11.0908 16.1141 11.3022 15.9027L18.1747 9.03016C18.3862 8.81864 18.3862 8.47567 18.1747 8.26413Z" fill="#6F00EB"/>
</g>
<defs>
<clipPath id="clip0_501_256">
<rect width="10.8333" height="10.8333" fill="white" transform="translate(7.5 6.66675)"/>
</clipPath>
</defs>
</svg>
